<?xml version="1.0" encoding="UTF-8"?>
<svg width="32px" height="67px" viewBox="0 0 32 67" version="1.1" xmlns="http://www.w3.org/2000/svg" xmlns:xlink="http://www.w3.org/1999/xlink">
    <!-- Generator: Sketch 50.2 (55047) - http://www.bohemiancoding.com/sketch -->
    <title>heart</title>
    <desc>Created with Sketch.</desc>
    <defs></defs>
    <g id="Page-1" stroke="none" stroke-width="1" fill="none" fill-rule="evenodd">
        <g id="TV-Main-Copy-3" transform="translate(-609.000000, -594.000000)">
            <g id="los-angeles-copy" transform="translate(477.000000, -45.000000)">
                <g id="metrics-view-1" transform="translate(34.000000, 443.000000)">
                    <g id="metric-2" transform="translate(0.000000, 187.000000)">
                        <g id="heart" transform="translate(115.508359, 41.446471) rotate(-9.000000) translate(-115.508359, -41.446471) translate(100.508359, 11.446471)">
                            <path d="M13.4829326,10.4369653 L13.4829326,10.7955386 C12.5311962,9.89910524 11.7380825,9.18195855 10.9449688,8.8233852 C3.48970021,3.98264502 1.11035916,15.2777054 0.317245473,22.6284591 C0,25.8556192 0,28.3656326 0,28.3656326 L10.4691006,49.7007467 L9.83460967,58.6650804 L12.5311962,53.6450535 L15.2277827,59.2029404 L14.9105372,49.1628867 L29.6624518,21.014879 C29.6624518,20.8355923 31.4073019,-18.0696158 13.4829326,10.4369653 Z" id="heart-fill" stroke="#FFFFFF" stroke-width="2" fill="#D93651" fill-rule="nonzero"></path>
                            <path d="M7.92672781,10.7354739 C7.12851109,11.0930969 6.17065101,11.6295315 5.53207763,13.0600236 C4.89350425,14.1328926 4.41457421,15.7421962 3.93564417,16.9938768 C3.77600083,17.5303114 3.61635748,16.9938768 3.77600083,16.6362538 C4.89350425,13.2388351 6.01100767,10.5566624 7.92672781,9.84141633 C8.2460145,9.84141633 8.2460145,10.7354739 7.92672781,10.7354739 Z" id="Path" fill="#FFFFFF"></path>
                        </g>
                    </g>
                </g>
            </g>
        </g>
    </g>
</svg>