<?xml version="1.0" encoding="UTF-8"?>
<svg width="50px" height="56px" viewBox="0 0 50 56" version="1.1" xmlns="http://www.w3.org/2000/svg" xmlns:xlink="http://www.w3.org/1999/xlink">
    <!-- Generator: Sketch 50.2 (55047) - http://www.bohemiancoding.com/sketch -->
    <title>lunchbag icon</title>
    <desc>Created with Sketch.</desc>
    <defs></defs>
    <g id="Page-1" stroke="none" stroke-width="1" fill="none" fill-rule="evenodd">
        <g id="TV-Main-Copy-3" transform="translate(-600.000000, -412.000000)" fill-rule="nonzero">
            <g id="los-angeles-copy" transform="translate(477.000000, -45.000000)">
                <g id="metrics-view-1" transform="translate(34.000000, 443.000000)">
                    <g id="metric-1">
                        <g id="lunchbag-icon" transform="translate(90.000000, 15.000000)">
                            <path d="M1.18371341,12.3536739 L2.78555926,12.3536739 L0.174420298,54 L39.246791,54 C39.5113975,54 39.7736361,53.9125435 39.9879259,53.7417391 L47.5573283,47.7160435 C47.8675157,47.4689348 48.0320808,47.0833043 47.9947873,46.6906304 L43.6640023,1.06356522 C43.637956,0.785934783 43.5154201,0.53823913 43.3313203,0.352173913 C43.2963946,0.316956522 43.2596931,0.284673913 43.2212156,0.254152174 C43.018765,0.0945 42.7618541,0 42.4854084,0 C42.4848164,0 42.4836325,0 42.4824486,0 L4.6727302,0 C4.16778766,0 3.71848944,0.317543478 3.55392434,0.790630435 L0.0649075555,10.7964783 C-0.0599961672,11.1551087 -0.00257597239,11.5518913 0.219409317,11.8606304 C0.441394606,12.1699565 0.800714794,12.3536739 1.18371341,12.3536739 Z M38.1344967,51.6521739 L2.69380534,51.6521739 L5.15813803,12.3536739 L38.9957996,12.3536739 C39.5007422,12.3536739 39.9494484,12.0361304 40.1146055,11.5636304 L40.7645784,9.70063043 L38.1344967,51.6521739 Z M42.7263364,16.2440217 L45.5772195,46.2809348 L40.5940937,50.247587 L42.7263364,16.2440217 Z M5.51568234,2.34782609 L40.8231825,2.34782609 L38.1522555,10.0058478 L2.84593926,10.0058478 L5.51568234,2.34782609 Z" id="Shape" stroke="#FFFFFF" stroke-width="0.5" fill="#FFFFFF"></path>
                            <g id="hashtaglunchbag-logo-heart-copy" transform="translate(12.000000, 15.000000)">
                                <path d="M7.22408027,5.33702132 L7.22408027,12.6178738 C7.22408027,12.7162637 7.22408027,12.8146536 7.11462451,12.8146536 C7.11462451,12.8146536 7.00516874,12.9130435 6.89571298,12.9130435 L0,12.9130435 C0.437823047,8.87905766 2.07965947,2.68049407 7.22408027,5.33702132 Z" id="Shape" fill="#FFFFFF"></path>
                                <path d="M8.74280317,5.79461945 L8.74280317,5.99369994 C8.12566412,5.49599873 7.61138158,5.09783776 7.09709904,4.89875728 C2.26284317,2.21117075 0.719995555,8.48220598 0.205713016,12.5633559 C0,14.3550802 0,15.7486436 0,15.7486436 L6.78852952,27.5939324 L6.37710349,32.5709445 L8.12566412,29.7838177 L9.87422475,32.8695652 L9.66851174,27.2953117 L19.234167,11.6674937 C19.234167,11.5679535 20.3655886,-10.032279 8.74280317,5.79461945 Z M3.80569079,5.59553897 C3.29140825,5.79461945 2.6742692,6.09324018 2.26284317,6.88956211 C1.85141714,7.48680356 1.54284762,8.38266574 1.23427809,9.07944743 C1.13142159,9.37806816 1.02856508,9.07944743 1.13142159,8.88036695 C1.85141714,6.98910236 2.5714127,5.49599873 3.80569079,5.09783776 C4.01140381,5.09783776 4.01140381,5.59553897 3.80569079,5.59553897 Z" id="Shape" fill="#CE4159"></path>
                                <path d="M13.7145215,12.4134153 C14.6329289,12.2218325 14.4288384,10.7849611 14.4288384,10.7849611 C14.4288384,9.73125549 13.0002046,10.4975869 13.0002046,10.4975869 L12.7961141,10.5933783 L13.4083857,8.58175842 C13.6124762,6.47434712 12.387933,7.14488708 12.387933,7.14488708 C11.4695256,7.33646993 11.0613446,10.976544 11.0613446,10.976544 C11.0613446,10.976544 11.0613446,11.0723354 11.0613446,11.0723354 L9.53066558,11.4555011 L10.2449824,8.96492411 C10.449073,6.85751281 9.22452978,7.62384419 9.22452978,7.62384419 C8.40816765,7.81542704 7.99998658,11.2639183 7.99998658,11.2639183 C7.99998658,11.3597097 7.99998658,11.5512925 7.89794132,11.8386668 L4.0202212,12.8923724 L7.59180552,13.9460781 C7.59180552,14.3292438 7.48976025,14.7124095 7.38771498,15.0955752 L3.61204013,15.957698 L7.08157919,17.107195 C6.77544339,19.2146063 6.57135285,21.1304348 6.57135285,21.1304348 L7.79589605,17.0114036 L10.1429372,16.5324465 C9.83680137,18.8314406 9.53066558,21.0346434 9.53066558,21.1304348 L10.9592993,16.3408637 L13.2042952,15.8619065 C14.1227026,15.6703237 13.918612,14.2334524 13.918612,14.2334524 C13.918612,13.1797467 12.4899783,13.9460781 12.4899783,13.9460781 L11.6736162,14.1376609 L12.0817972,12.8923724 L13.7145215,12.4134153 Z M10.5511182,14.3292438 L8.51021291,14.8082009 L8.81634871,13.6587038 L10.6531635,13.1797467 C10.6531635,13.467121 10.6531635,13.9460781 10.5511182,14.3292438 Z" id="Shape" fill="#FFFFFF"></path>
                            </g>
                        </g>
                    </g>
                </g>
            </g>
        </g>
    </g>
</svg>