<?xml version="1.0" encoding="UTF-8"?>
<svg width="32px" height="50px" viewBox="0 0 32 50" version="1.1" xmlns="http://www.w3.org/2000/svg" xmlns:xlink="http://www.w3.org/1999/xlink">
    <!-- Generator: Sketch 50.2 (55047) - http://www.bohemiancoding.com/sketch -->
    <title>map icon</title>
    <desc>Created with Sketch.</desc>
    <defs></defs>
    <g id="mobile" stroke="none" stroke-width="1" fill="none" fill-rule="evenodd">
        <g id="Mobile---Give" transform="translate(-296.000000, -299.000000)">
            <g id="card" transform="translate(8.000000, 7.000000)">
                <g id="metric-3" transform="translate(249.000000, 292.000000)">
                    <g id="map-icon" transform="translate(39.000000, 0.000000)">
                        <path d="M4.57719203,24.4508197 L1.94865339,48.2533661 L29.8796225,48.2533661 L27.2510839,24.4508197 L4.57719203,24.4508197 Z" id="Rectangle-4" stroke="#FFFFFF" stroke-width="3"></path>
                        <path d="M15.5737705,33.9831117 L15.5737705,15.1639344" id="Path-16" stroke="#FFFFFF" stroke-width="3" stroke-linecap="round" stroke-linejoin="round"></path>
                        <circle id="Oval-6" stroke="#CE4159" stroke-width="3" cx="15.5737705" cy="8.19672131" r="6.69672131"></circle>
                        <g id="dashed-line" transform="translate(5.000000, 36.000000)" fill="#CE4159">
                            <rect id="Rectangle-8" x="0" y="4" width="1" height="1"></rect>
                            <rect id="Rectangle-8-Copy" x="2" y="4" width="1" height="1"></rect>
                            <rect id="Rectangle-8-Copy-2" x="4" y="4" width="1" height="1"></rect>
                            <rect id="Rectangle-8-Copy-3" x="6" y="4" width="1" height="1"></rect>
                            <rect id="Rectangle-8-Copy-4" x="8" y="4" width="1" height="1"></rect>
                            <rect id="Rectangle-8-Copy-5" x="10" y="4" width="1" height="1"></rect>
                            <rect id="Rectangle-8-Copy-6" x="10" y="2" width="1" height="1"></rect>
                            <rect id="Rectangle-8-Copy-7" x="10" y="0" width="1" height="1"></rect>
                        </g>
                    </g>
                </g>
            </g>
        </g>
    </g>
</svg>