<?xml version="1.0" encoding="UTF-8"?>
<svg width="43px" height="43px" viewBox="0 0 43 43" version="1.1" xmlns="http://www.w3.org/2000/svg" xmlns:xlink="http://www.w3.org/1999/xlink">
    <!-- Generator: Sketch 50.2 (55047) - http://www.bohemiancoding.com/sketch -->
    <title>pencil icon (microsoft official)</title>
    <desc>Created with Sketch.</desc>
    <defs></defs>
    <g id="Page-1" stroke="none" stroke-width="1" fill="none" fill-rule="evenodd">
        <g id="TV-Main-Copy" transform="translate(-411.000000, -230.000000)">
            <g id="sentiments" transform="translate(385.000000, 116.000000)">
                <g id="messages" transform="translate(26.000000, 109.000000)">
                    <g id="header">
                        <g id="pencil-icon-(microsoft-official)" transform="translate(0.000000, 5.000000)">
                            <polygon id="Path-11" fill="#2FACC0" points="31.0466326 5.06935392 34.8887647 1.71993596 38.4009926 2.19070848 41.53385 5.96117313 40.8362602 9.68256111 38.6739005 12.3119282 36.6390362 12.3119282 32.8950574 8.5859961 30.6436326 5.96117313"></polygon>
                            <rect id="Rectangle-10" fill="#CE4159" transform="translate(7.000000, 36.000000) rotate(-7.000000) translate(-7.000000, -36.000000) " x="3" y="32" width="8" height="8"></rect>
                            <path d="M43,7.03369141 C43,7.95752415 42.8250343,8.85334853 42.4750977,9.72119141 C42.125161,10.5890343 41.6142612,11.3588834 40.9423828,12.0307617 L13.2905273,39.6826172 L0,43 L3.31738281,29.7094727 L30.9692383,2.05761719 C31.6411166,1.38573883 32.4109657,0.874838989 33.2788086,0.524902344 C34.1466515,0.174965698 35.0424758,0 35.9663086,0 C36.9321337,0 37.8419554,0.18546364 38.6958008,0.556396484 C39.5496462,0.927329329 40.2950001,1.43123054 40.9318848,2.06811523 C41.5687695,2.70499993 42.0726707,3.4503538 42.4436035,4.30419922 C42.8145364,5.15804463 43,6.06786626 43,7.03369141 Z M7.16666667,29.7038788 C8.63996696,30.1903459 9.90823711,30.9652068 10.9715152,32.0284848 C12.0347932,33.0917629 12.8096541,34.360033 13.2961212,35.8333333 L35.8333333,13.2752727 L29.7247273,7.16666667 L7.16666667,29.7038788 Z M3.90909091,39.7424242 L11.0757576,37.9562034 C10.9305356,37.2881825 10.6945535,36.6564765 10.3678042,36.0610666 C10.0410548,35.4656567 9.64533099,34.9356045 9.1806208,34.4708944 C8.71591061,34.0061842 8.18585849,33.6104603 7.59044856,33.283711 C6.99503862,32.9569616 6.36333268,32.7209795 5.69531178,32.5757576 L3.90909091,39.7424242 Z M37.6207443,11.7272727 C37.9818392,11.3661778 38.3284851,11.0267537 38.6606924,10.7089901 C38.9928998,10.3912266 39.2889932,10.0554134 39.5489815,9.70154034 C39.8089698,9.34766732 40.0147909,8.96491244 40.1664507,8.55326423 C40.3181106,8.14161602 40.3939394,7.66136698 40.3939394,7.1125027 C40.3939394,6.49141943 40.2747799,5.91006533 40.0364572,5.36842295 C39.7981346,4.82678056 39.473154,4.35014242 39.0615058,3.93849421 C38.6498576,3.52684599 38.1732194,3.20186544 37.6315771,2.96354279 C37.0899347,2.72522014 36.5085806,2.60606061 35.8874973,2.60606061 C35.338633,2.60606061 34.858384,2.6818894 34.4467358,2.83354927 C34.0350876,2.98520914 33.6523327,3.19103015 33.2984597,3.4510185 C32.9445866,3.71100684 32.6087734,4.00710024 32.2910099,4.33930756 C31.9732463,4.67151489 31.6338222,5.01816082 31.2727273,5.37925574 L37.6207443,11.7272727 Z" id="Icon" fill="#FFFFFF"></path>
                        </g>
                    </g>
                </g>
            </g>
        </g>
    </g>
</svg>