<?xml version="1.0" encoding="UTF-8"?>
<svg width="35px" height="74px" viewBox="0 0 35 74" version="1.1" xmlns="http://www.w3.org/2000/svg" xmlns:xlink="http://www.w3.org/1999/xlink">
    <!-- Generator: Sketch 50.2 (55047) - http://www.bohemiancoding.com/sketch -->
    <title>heart copy 7</title>
    <desc>Created with Sketch.</desc>
    <defs></defs>
    <g id="Page-1" stroke="none" stroke-width="1" fill="none" fill-rule="evenodd">
        <g id="TV-Main-Copy-3" transform="translate(-1158.000000, -608.000000)">
            <g id="los-angeles-copy" transform="translate(477.000000, -45.000000)">
                <g id="map-view-1" transform="translate(0.000000, 407.000000)">
                    <g id="heart-copy-7" transform="translate(699.459195, 281.825116) rotate(-9.000000) translate(-699.459195, -281.825116) translate(682.959195, 248.825116)">
                        <path d="M14.972917,11.5903431 L14.972917,11.988542 C13.9160052,10.9930447 13.0352454,10.1966469 12.1544856,9.79844802 C3.87534323,4.42276284 1.23306375,16.9660283 0.35230393,25.1291058 C0,28.7128959 0,31.5002882 0,31.5002882 L11.6260297,55.1931229 L10.9214218,65.1480954 L13.9160052,59.5733108 L16.9105886,65.7453938 L16.5582847,54.5958245 L32.9404174,23.3372107 C32.9404174,23.1381112 34.878089,-20.0664696 14.972917,11.5903431 Z" id="heart-fill" stroke="#FFFFFF" stroke-width="2" fill="#D93651" fill-rule="nonzero"></path>
                        <path d="M8.80270199,11.9218396 C7.91627519,12.3189831 6.85256303,12.9146985 6.14342159,14.5032727 C5.43428014,15.6947034 4.90242406,17.4818494 4.37056798,18.8718519 C4.19328262,19.4675673 4.01599726,18.8718519 4.19328262,18.4747083 C5.43428014,14.7018445 6.67527767,11.7232678 8.80270199,10.9289807 C9.15727271,10.9289807 9.15727271,11.9218396 8.80270199,11.9218396 Z" id="Path" fill="#FFFFFF"></path>
                    </g>
                </g>
            </g>
        </g>
    </g>
</svg>