<?xml version="1.0" encoding="UTF-8"?>
<svg width="186px" height="26px" viewBox="0 0 186 26" version="1.1" xmlns="http://www.w3.org/2000/svg" xmlns:xlink="http://www.w3.org/1999/xlink">
    <!-- Generator: Sketch 50.2 (55047) - http://www.bohemiancoding.com/sketch -->
    <title>hashtaglunchbag-logo</title>
    <desc>Created with Sketch.</desc>
    <defs></defs>
    <g id="mobile" stroke="none" stroke-width="1" fill="none" fill-rule="evenodd">
        <g id="Mobile---Organize" transform="translate(-95.000000, -118.000000)" fill-rule="nonzero">
            <g id="hashtaglunchbag-logo" transform="translate(95.000000, 118.000000)">
                <g id="Group">
                    <path d="M3,4.45084746 C2.57462687,4.56101695 2.14925373,4.82542373 1.81343284,5.42033898 C1.5,5.94915254 1.2761194,6.58813559 1.02985075,7.20508475 C0.940298507,7.42542373 0.805970149,7.20508475 0.895522388,6.98474576 C1.45522388,5.46440678 2.01492537,4.31864407 3,4.05423729 C3.13432836,4.03220339 3.13432836,4.40677966 3,4.45084746 Z" id="Shape" fill="#FFFFFF"></path>
                    <path d="M6.78358209,4.56101695 L6.78358209,4.69322034 C5.19402985,3.37118644 3.98507463,3.08474576 3.04477612,3.43728814 C1.58955224,3.96610169 0.828358209,6.08135593 0.425373134,8.10847458 C0,10.2677966 0,12.3389831 0,12.3389831 L5.30597015,21.7033898 L4.97014925,25.6033898 L6.29104478,23.4220339 L7.65671642,25.8237288 L7.47761194,21.4389831 L14.9328358,9.1 C14.9328358,9.1220339 15.8283582,-7.88813559 6.78358209,4.56101695 Z M0.873134328,7.00677966 C1.43283582,5.48644068 1.99253731,4.34067797 2.97761194,4.07627119 C3.1119403,4.03220339 3.1119403,4.42881356 2.97761194,4.47288136 C2.55223881,4.58305085 2.12686567,4.84745763 1.79104478,5.44237288 C1.47761194,5.97118644 1.25373134,6.61016949 1.00746269,7.22711864 C0.940298507,7.42542373 0.805970149,7.22711864 0.873134328,7.00677966 Z" id="Shape" fill="#CE4159"></path>
                    <path d="M9.87313433,10.4440678 C10.5895522,10.2898305 10.4552239,9.1 10.4552239,9.1 C10.4104478,8.24067797 9.31343284,8.87966102 9.31343284,8.87966102 L9.15671642,8.92372881 L9.64925373,7.24915254 C9.82835821,5.48644068 8.82089552,6.10338983 8.82089552,6.10338983 C8.10447761,6.25762712 7.81343284,9.23220339 7.81343284,9.23220339 C7.81343284,9.25423729 7.81343284,9.27627119 7.79104478,9.32033898 L6.60447761,9.67288136 L7.1641791,7.66779661 C7.32089552,5.97118644 6.38059701,6.5440678 6.38059701,6.5440678 C5.70895522,6.67627119 5.44029851,9.56271186 5.44029851,9.56271186 C5.41791045,9.65084746 5.39552239,9.82711864 5.37313433,10.0254237 L2.35074627,10.8847458 L5.14925373,11.7220339 C5.10447761,12.0084746 5.05970149,12.3169492 5.03731343,12.6254237 L2.08208955,13.3525424 L4.79104478,14.2779661 C4.56716418,16.0186441 4.34328358,17.5610169 4.34328358,17.5610169 L5.28358209,14.1898305 L7.14179104,13.7491525 C6.87313433,15.6661017 6.62686567,17.4728814 6.62686567,17.5169492 L7.76865672,13.5949153 L9.51492537,13.1983051 C10.2313433,13.0881356 10.0746269,11.8762712 10.0746269,11.8762712 C10.0298507,11.0169492 8.93283582,11.6118644 8.93283582,11.6118644 L8.28358209,11.7661017 L8.57462687,10.7525424 L9.87313433,10.4440678 Z M7.41044776,12.0305085 L5.82089552,12.4271186 L6.08955224,11.479661 L7.54477612,11.0830508 C7.5,11.3694915 7.45522388,11.7 7.41044776,12.0305085 Z" id="Shape" fill="#FFFFFF"></path>
                </g>
                <g id="Group" transform="translate(20.000000, 2.000000)" fill="#FFFFFF">
                    <path d="M0.178975741,16.4408602 L0.178975741,2.08172043 C0.178975741,1.60860215 0.604043127,1.37204301 1.4541779,1.37204301 L2.19245283,1.37204301 C3.0425876,1.37204301 3.46765499,1.60860215 3.46765499,2.08172043 L3.46765499,7.6172043 L9.19487871,7.6172043 L9.19487871,2.08172043 C9.19487871,1.60860215 9.61994609,1.37204301 10.4700809,1.37204301 L11.2083558,1.37204301 C12.0584906,1.37204301 12.483558,1.60860215 12.483558,2.08172043 L12.483558,16.4408602 C12.483558,16.9139785 12.0584906,17.1505376 11.2083558,17.1505376 L10.4700809,17.1505376 C9.61994609,17.1505376 9.19487871,16.9139785 9.19487871,16.4408602 L9.19487871,10.5978495 L3.46765499,10.5978495 L3.46765499,16.4645161 C3.46765499,16.9376344 3.0425876,17.1741935 2.19245283,17.1741935 L1.4541779,17.1741935 C0.604043127,17.1505376 0.178975741,16.9139785 0.178975741,16.4408602 Z" id="Shape"></path>
                    <path d="M14.8549865,14.027957 C14.8549865,13.6021505 14.8997305,13.2236559 14.9668464,12.8924731 C15.0339623,12.5376344 15.190566,12.1827957 15.4590296,11.7806452 C15.7051213,11.3784946 16.0630728,11.0709677 16.4881402,10.8107527 C17.4948787,10.172043 18.9938005,9.86451613 20.9625337,9.86451613 L20.9625337,9.1311828 C20.9625337,8.27956989 20.4032345,7.85376344 19.3070081,7.85376344 C18.5239892,7.85376344 17.7633423,8.04301075 17.0250674,8.39784946 C16.7789757,8.51612903 16.622372,8.58709677 16.577628,8.58709677 C16.3762803,8.58709677 16.1301887,8.35053763 15.8617251,7.90107527 C15.5932615,7.42795699 15.4590296,7.07311828 15.4590296,6.78924731 C15.4590296,6.38709677 15.8617251,6.03225806 16.6447439,5.70107527 C17.4277628,5.39354839 18.3897574,5.22795699 19.5307278,5.22795699 C22.5733154,5.22795699 24.0946092,6.48172043 24.0946092,8.9655914 L24.0946092,13.1763441 C24.0946092,14.0989247 24.1393531,14.8795699 24.228841,15.5182796 L24.3630728,16.4408602 C24.3630728,16.6774194 24.0722372,16.8666667 23.512938,16.9849462 C22.9312668,17.1032258 22.5061995,17.1741935 22.2377358,17.1741935 C21.9469003,17.1741935 21.7679245,17.1505376 21.6784367,17.0795699 C21.5889488,17.0322581 21.5218329,16.9139785 21.454717,16.772043 C21.3876011,16.6301075 21.3652291,16.511828 21.3204852,16.4408602 C21.2981132,16.3698925 21.2533693,16.2043011 21.2309973,15.9913978 C21.1862534,15.7784946 21.1638814,15.6602151 21.1638814,15.6129032 C20.9177898,16.0860215 20.4703504,16.488172 19.8439353,16.8193548 C19.2175202,17.1505376 18.6134771,17.316129 18.0318059,17.316129 C16.9355795,17.316129 16.1525606,17.0086022 15.6380054,16.4172043 C15.1010782,15.8021505 14.8549865,14.9978495 14.8549865,14.027957 Z M17.96469,13.6731183 C17.96469,13.9806452 18.0541779,14.2172043 18.2331536,14.3827957 C18.4121294,14.572043 18.680593,14.6430108 19.0609164,14.6430108 C19.4188679,14.6430108 19.7991914,14.5010753 20.1347709,14.2408602 C20.4927224,13.9806452 20.761186,13.6258065 20.9177898,13.2236559 L20.9177898,11.9935484 C18.9714286,12.0172043 17.96469,12.5849462 17.96469,13.6731183 Z" id="Shape"></path>
                    <path d="M26.1752022,15.7075269 C26.1752022,15.4709677 26.309434,15.1397849 26.5778976,14.6903226 C26.8463612,14.2645161 27.0924528,14.0516129 27.2938005,14.0516129 C27.3161725,14.0516129 27.5846361,14.1462366 28.0544474,14.3591398 C28.5466307,14.572043 28.9716981,14.6666667 29.3743935,14.6666667 C30.2469003,14.6666667 30.6719677,14.3354839 30.6719677,13.6494624 C30.6719677,13.2946237 30.5377358,13.0107527 30.2469003,12.7978495 C29.9560647,12.5849462 29.5981132,12.3956989 29.1954178,12.2537634 C28.7703504,12.111828 28.367655,11.9225806 27.9425876,11.7096774 C27.5175202,11.4967742 27.1595687,11.1655914 26.8911051,10.6688172 C26.6002695,10.1956989 26.4660377,9.58064516 26.4660377,8.82365591 C26.4660377,7.71182796 26.8239892,6.81290323 27.5175202,6.17419355 C28.2110512,5.51182796 29.1730458,5.20430108 30.3811321,5.20430108 C30.9404313,5.20430108 31.4773585,5.27526882 31.9919137,5.39354839 C33.0210243,5.63010753 33.5132075,6.05591398 33.5132075,6.62365591 C33.5132075,6.81290323 33.4013477,7.14408602 33.2,7.59354839 C32.9986523,8.04301075 32.7973046,8.27956989 32.5959569,8.27956989 C32.5735849,8.27956989 32.3722372,8.20860215 31.9695418,8.04301075 C31.5668464,7.87741935 31.1641509,7.80645161 30.7838275,7.80645161 C30.0231806,7.80645161 29.6428571,8.06666667 29.6428571,8.61075269 C29.6428571,8.91827957 29.7770889,9.15483871 30.0679245,9.34408602 C30.3587601,9.53333333 30.7167116,9.69892473 31.119407,9.86451613 C31.5444744,10.0301075 31.9471698,10.2193548 32.3722372,10.455914 C32.7973046,10.6924731 33.1552561,11.0473118 33.4237197,11.544086 C33.7145553,12.0408602 33.8487871,12.655914 33.8487871,13.3892473 C33.8487871,14.572043 33.4908356,15.5182796 32.7525606,16.227957 C32.0142857,16.9376344 31.119407,17.2924731 30.0231806,17.2924731 C28.9269542,17.2924731 28.0097035,17.1505376 27.2714286,16.8666667 C26.5555256,16.6064516 26.1752022,16.2043011 26.1752022,15.7075269 Z" id="Shape"></path>
                    <path d="M35.3700809,16.4408602 L35.3700809,0.922580645 C35.3700809,0.449462366 35.7951482,0.212903226 36.645283,0.212903226 L37.2493261,0.212903226 C38.0994609,0.212903226 38.5245283,0.449462366 38.5245283,0.922580645 L38.5245283,6.74193548 C39.3299191,5.72473118 40.3366577,5.20430108 41.522372,5.20430108 C43.6700809,5.20430108 44.7215633,6.41075269 44.7215633,8.84731183 L44.7215633,16.4645161 C44.7215633,16.9376344 44.296496,17.1741935 43.4463612,17.1741935 L42.8423181,17.1741935 C41.9921833,17.1741935 41.5671159,16.9376344 41.5671159,16.4645161 L41.5671159,9.32043011 C41.5671159,8.39784946 41.1196765,7.92473118 40.2024259,7.92473118 C39.4865229,7.92473118 38.9272237,8.35053763 38.5021563,9.22580645 L38.5021563,16.4172043 C38.5021563,16.8903226 38.0770889,17.1268817 37.2269542,17.1268817 L36.6229111,17.1268817 C35.7951482,17.1505376 35.3700809,16.9139785 35.3700809,16.4408602 Z" id="Shape"></path>
                    <path d="M51.5002695,14.6666667 L52.0819407,14.572043 C52.2609164,14.572043 52.4175202,14.7849462 52.551752,15.2344086 C52.6859838,15.683871 52.7307278,15.9913978 52.7307278,16.1806452 C52.7307278,16.9139785 52.0595687,17.2924731 50.6948787,17.2924731 C48.6366577,17.2924731 47.5851752,16.0860215 47.5851752,13.6494624 L47.5851752,7.99569892 L47.2495957,7.99569892 C46.8245283,7.99569892 46.6231806,7.6172043 46.6231806,6.88387097 L46.6231806,6.50537634 C46.6231806,5.7483871 46.8245283,5.39354839 47.2495957,5.39354839 L47.5851752,5.39354839 L47.8536388,3.26451613 C47.9207547,2.79139785 48.3010782,2.55483871 48.9946092,2.55483871 L49.6433962,2.55483871 C50.3592992,2.55483871 50.6948787,2.79139785 50.6948787,3.26451613 L50.6948787,5.39354839 L51.7463612,5.39354839 C52.1714286,5.39354839 52.3727763,5.77204301 52.3727763,6.50537634 L52.3727763,6.88387097 C52.3727763,7.64086022 52.1714286,7.99569892 51.7463612,7.99569892 L50.6948787,7.99569892 L50.6948787,13.6967742 C50.7396226,14.3591398 50.9857143,14.6666667 51.5002695,14.6666667 Z" id="Shape"></path>
                    <path d="M54.1177898,14.027957 C54.1177898,13.6021505 54.1625337,13.2236559 54.2296496,12.8924731 C54.2967655,12.5376344 54.4533693,12.1827957 54.7218329,11.7806452 C54.9679245,11.3784946 55.325876,11.0709677 55.7509434,10.8107527 C56.7576819,10.172043 58.2566038,9.86451613 60.2253369,9.86451613 L60.2253369,9.1311828 C60.2253369,8.27956989 59.6660377,7.85376344 58.5698113,7.85376344 C57.7867925,7.85376344 57.0261456,8.04301075 56.3102426,8.39784946 C56.0641509,8.51612903 55.9075472,8.58709677 55.8628032,8.58709677 C55.6614555,8.58709677 55.4153639,8.35053763 55.1469003,7.90107527 C54.8784367,7.42795699 54.7665768,7.07311828 54.7665768,6.78924731 C54.7665768,6.38709677 55.1469003,6.03225806 55.9522911,5.70107527 C56.73531,5.39354839 57.6973046,5.22795699 58.8382749,5.22795699 C61.8808625,5.22795699 63.4021563,6.48172043 63.4021563,8.9655914 L63.4021563,13.1763441 C63.4021563,14.0989247 63.4469003,14.8795699 63.5363881,15.5182796 L63.6706199,16.4408602 C63.6706199,16.6774194 63.3797844,16.8666667 62.8204852,16.9849462 C62.238814,17.1032258 61.8137466,17.1741935 61.545283,17.1741935 C61.2544474,17.1741935 61.0754717,17.1505376 60.9859838,17.0795699 C60.896496,17.0322581 60.8293801,16.9139785 60.7622642,16.772043 C60.7175202,16.6301075 60.6727763,16.511828 60.6280323,16.4408602 C60.6056604,16.3698925 60.5609164,16.2043011 60.5385445,15.9913978 C60.4938005,15.7784946 60.4714286,15.6602151 60.4714286,15.6129032 C60.2253369,16.0860215 59.7778976,16.488172 59.1514825,16.8193548 C58.5250674,17.1505376 57.9210243,17.316129 57.3393531,17.316129 C56.2431267,17.316129 55.4601078,17.0086022 54.9455526,16.4172043 C54.3638814,15.8021505 54.1177898,14.9978495 54.1177898,14.027957 Z M57.2274933,13.6731183 C57.2274933,13.9806452 57.3169811,14.2172043 57.4959569,14.3827957 C57.6749326,14.572043 57.9657682,14.6430108 58.3237197,14.6430108 C58.6816712,14.6430108 59.0619946,14.5010753 59.3975741,14.2408602 C59.7555256,13.9806452 60.0239892,13.6258065 60.180593,13.2236559 L60.180593,11.9935484 C58.2342318,12.0172043 57.2274933,12.5849462 57.2274933,13.6731183 Z" id="Shape"></path>
                    <path d="M65.1024259,18.7827957 C65.1024259,17.5763441 65.7512129,16.7010753 67.0264151,16.1806452 L67.0487871,16.0860215 C66.4447439,15.7548387 66.1315364,15.2107527 66.1315364,14.4301075 C66.1315364,13.6494624 66.5566038,13.0344086 67.4067385,12.5376344 C66.2657682,11.8752688 65.684097,10.7870968 65.684097,9.34408602 C65.684097,7.87741935 66.1091644,6.83655914 66.9369272,6.17419355 C67.787062,5.51182796 68.8832884,5.20430108 70.2479784,5.20430108 C70.8072776,5.20430108 71.3442049,5.27526882 71.8811321,5.39354839 L75.3040431,5.39354839 C75.7291105,5.39354839 75.9304582,5.77204301 75.9304582,6.50537634 L75.9304582,6.88387097 C75.9304582,7.59354839 75.7514825,7.9483871 75.415903,7.9483871 C75.0579515,7.9483871 74.7671159,7.92473118 74.5210243,7.85376344 L74.4762803,7.9483871 C74.7,8.25591398 74.8118598,8.68172043 74.8118598,9.20215054 C74.8118598,10.5268817 74.4091644,11.5204301 73.6037736,12.1827957 C72.7983827,12.8451613 71.7692722,13.1763441 70.4716981,13.1763441 C69.5991914,13.1763441 69.174124,13.3892473 69.174124,13.7913978 C69.174124,14.2172043 69.7334232,14.5010753 70.8520216,14.5956989 C71.9706199,14.7139785 72.9997305,14.9505376 73.9617251,15.3290323 C74.4315364,15.5182796 74.8118598,15.8494624 75.1474394,16.3225806 C75.4606469,16.7956989 75.6172507,17.3634409 75.6172507,18.0731183 C75.6172507,19.2322581 75.1250674,20.1548387 74.1183288,20.8408602 C73.1115903,21.5268817 71.7916442,21.8817204 70.1584906,21.8817204 C66.7803235,21.8817204 65.1024259,20.8408602 65.1024259,18.7827957 Z M68.1450135,18.2387097 C68.1450135,18.9010753 68.8832884,19.255914 70.3598383,19.255914 C71.8363881,19.255914 72.5746631,18.8774194 72.5746631,18.1677419 C72.5746631,17.8129032 72.3285714,17.5763441 71.8587601,17.4107527 C71.3889488,17.2451613 70.538814,17.1268817 69.3083558,17.0322581 C68.5253369,17.316129 68.1450135,17.7182796 68.1450135,18.2387097 Z M69.1070081,10.3612903 C69.3978437,10.6215054 69.7781671,10.7634409 70.2479784,10.7634409 C70.7177898,10.7634409 71.0981132,10.6215054 71.3889488,10.3612903 C71.6797844,10.1010753 71.8363881,9.69892473 71.8363881,9.17849462 C71.8363881,8.65806452 71.6797844,8.25591398 71.3889488,7.99569892 C71.0981132,7.73548387 70.7177898,7.59354839 70.2479784,7.59354839 C69.7781671,7.59354839 69.3978437,7.73548387 69.1070081,7.99569892 C68.8161725,8.25591398 68.6595687,8.65806452 68.6595687,9.17849462 C68.6595687,9.72258065 68.8161725,10.1010753 69.1070081,10.3612903 Z" id="Shape"></path>
                    <path d="M77.6307278,16.227957 L77.6307278,2.08172043 C77.6307278,1.60860215 78.0557951,1.37204301 78.9059299,1.37204301 L79.6218329,1.37204301 C80.4719677,1.37204301 80.897035,1.60860215 80.897035,2.08172043 L80.897035,14.1698925 L85.6398922,14.1698925 C86.0649596,14.1698925 86.2663073,14.5483871 86.2663073,15.2817204 L86.2663073,15.9677419 C86.2663073,16.7247312 86.0649596,17.0795699 85.6398922,17.0795699 L78.4808625,17.0795699 C77.9215633,17.1268817 77.6307278,16.8193548 77.6307278,16.227957 Z" id="Shape"></path>
                    <path d="M87.6981132,13.6494624 L87.6981132,6.05591398 C87.6981132,5.5827957 88.1231806,5.34623656 88.9733154,5.34623656 L89.5773585,5.34623656 C90.4274933,5.34623656 90.8525606,5.5827957 90.8525606,6.05591398 L90.8525606,13.1763441 C90.8525606,14.0989247 91.277628,14.572043 92.1277628,14.572043 C92.8436658,14.572043 93.402965,14.1462366 93.8280323,13.2709677 L93.8280323,6.05591398 C93.8280323,5.5827957 94.2530997,5.34623656 95.1032345,5.34623656 L95.7072776,5.34623656 C96.5574124,5.34623656 96.9824798,5.5827957 96.9824798,6.05591398 L96.9824798,13.1763441 C96.9824798,14.0989247 97.0272237,14.8795699 97.1167116,15.5182796 L97.2509434,16.4408602 C97.2509434,16.6774194 96.9601078,16.8666667 96.4008086,16.9849462 C95.8191375,17.1032258 95.3940701,17.1741935 95.1256065,17.1741935 C94.8571429,17.1741935 94.6557951,17.1505376 94.5663073,17.0795699 C94.4768194,17.0322581 94.4097035,16.9139785 94.3425876,16.772043 C94.2754717,16.6301075 94.2530997,16.511828 94.2083558,16.4408602 C94.1859838,16.3698925 94.1412399,16.2043011 94.1188679,15.9913978 C94.074124,15.7784946 94.051752,15.6602151 94.051752,15.6129032 C93.7161725,16.0860215 93.2687332,16.488172 92.709434,16.8193548 C92.1501348,17.1505376 91.5460916,17.316129 90.8973046,17.316129 C89.8458221,17.316129 89.0404313,17.0086022 88.548248,16.4172043 C87.9442049,15.8258065 87.6981132,14.9032258 87.6981132,13.6494624 Z" id="Shape"></path>
                    <path d="M99.577628,16.4408602 L99.577628,9.32043011 C99.577628,8.20860215 99.5328841,7.40430108 99.4433962,6.95483871 C99.3539084,6.50537634 99.3091644,6.24516129 99.3091644,6.15053763 C99.3091644,5.91397849 99.6,5.72473118 100.159299,5.60645161 C100.74097,5.48817204 101.166038,5.4172043 101.434501,5.4172043 C101.725337,5.4172043 101.904313,5.44086022 101.993801,5.51182796 C102.083288,5.5827957 102.150404,5.65376344 102.21752,5.79569892 C102.284636,5.93763441 102.307008,6.03225806 102.351752,6.10322581 C102.374124,6.17419355 102.418868,6.31612903 102.44124,6.52903226 C102.485984,6.71827957 102.508356,6.83655914 102.508356,6.88387097 C102.843935,6.41075269 103.291375,6.00860215 103.873046,5.67741935 C104.432345,5.34623656 105.036388,5.18064516 105.685175,5.18064516 C106.736658,5.18064516 107.542049,5.48817204 108.034232,6.05591398 C108.548787,6.64731183 108.794879,7.56989247 108.794879,8.8 L108.794879,16.4172043 C108.794879,16.8903226 108.369811,17.1268817 107.519677,17.1268817 L106.915633,17.1268817 C106.065499,17.1268817 105.640431,16.8903226 105.640431,16.4172043 L105.640431,9.32043011 C105.640431,8.39784946 105.215364,7.92473118 104.365229,7.92473118 C103.649326,7.92473118 103.090027,8.35053763 102.66496,9.22580645 L102.66496,16.4172043 C102.66496,16.8903226 102.239892,17.1268817 101.389757,17.1268817 L100.785714,17.1268817 C100.002695,17.1505376 99.577628,16.9139785 99.577628,16.4408602 Z" id="Shape"></path>
                    <path d="M111.88221,15.8258065 C111.009704,14.855914 110.562264,13.3419355 110.562264,11.3075269 C110.562264,9.27311828 111.009704,7.75913978 111.88221,6.71827957 C112.754717,5.70107527 114.141779,5.18064516 116.021024,5.18064516 C116.893531,5.18064516 117.67655,5.32258065 118.437197,5.60645161 C119.175472,5.89032258 119.555795,6.2688172 119.555795,6.74193548 C119.555795,6.95483871 119.421563,7.30967742 119.130728,7.7827957 C118.839892,8.25591398 118.616173,8.4688172 118.437197,8.4688172 C118.370081,8.4688172 118.258221,8.42150538 118.056873,8.30322581 C117.430458,7.97204301 116.759299,7.80645161 116.043396,7.80645161 C115.327493,7.80645161 114.768194,8.09032258 114.387871,8.6344086 C114.007547,9.20215054 113.806199,10.0537634 113.806199,11.2129032 C113.806199,12.372043 113.985175,13.2473118 114.343127,13.8150538 C114.701078,14.3827957 115.260377,14.6666667 115.998652,14.6666667 C116.736927,14.6666667 117.45283,14.5010753 118.146361,14.1462366 C118.370081,14.0516129 118.504313,14.0043011 118.526685,14.0043011 C118.728032,14.0043011 118.974124,14.2172043 119.242588,14.6666667 C119.511051,15.116129 119.645283,15.4709677 119.645283,15.7311828 C119.645283,15.9913978 119.488679,16.2516129 119.175472,16.4645161 C118.862264,16.6774194 118.481941,16.8430108 118.056873,16.9612903 C117.139623,17.1741935 116.446092,17.2688172 115.931536,17.2688172 C114.097035,17.2924731 112.754717,16.8193548 111.88221,15.8258065 Z" id="Shape"></path>
                    <path d="M121.367925,16.4408602 L121.367925,0.922580645 C121.367925,0.449462366 121.792992,0.212903226 122.643127,0.212903226 L123.24717,0.212903226 C124.097305,0.212903226 124.522372,0.449462366 124.522372,0.922580645 L124.522372,6.74193548 C125.327763,5.72473118 126.334501,5.20430108 127.520216,5.20430108 C129.667925,5.20430108 130.719407,6.41075269 130.719407,8.84731183 L130.719407,16.4645161 C130.719407,16.9376344 130.29434,17.1741935 129.444205,17.1741935 L128.840162,17.1741935 C127.990027,17.1741935 127.56496,16.9376344 127.56496,16.4645161 L127.56496,9.32043011 C127.56496,8.39784946 127.11752,7.92473118 126.20027,7.92473118 C125.484367,7.92473118 124.925067,8.35053763 124.5,9.22580645 L124.5,16.4172043 C124.5,16.8903226 124.074933,17.1268817 123.224798,17.1268817 L122.620755,17.1268817 C121.792992,17.1505376 121.367925,16.9139785 121.367925,16.4408602 Z" id="Shape"></path>
                    <path d="M132.934232,16.4408602 L132.934232,0.922580645 C132.934232,0.449462366 133.359299,0.212903226 134.209434,0.212903226 L134.813477,0.212903226 C135.663612,0.212903226 136.088679,0.449462366 136.088679,0.922580645 L136.088679,5.91397849 C136.692722,5.44086022 137.408625,5.22795699 138.25876,5.22795699 C139.668194,5.22795699 140.76442,5.77204301 141.569811,6.86021505 C142.35283,7.9483871 142.755526,9.43870968 142.755526,11.3075269 C142.755526,13.1763441 142.397574,14.6666667 141.659299,15.7311828 C140.921024,16.7956989 139.95903,17.3397849 138.795687,17.3397849 C138.169272,17.3397849 137.587601,17.1741935 137.095418,16.8666667 C136.603235,16.5591398 136.222911,16.1569892 135.954447,15.6602151 L135.7531,16.6301075 C135.663612,17.0086022 135.260916,17.2215054 134.522642,17.2215054 L134.27655,17.2215054 C133.359299,17.1505376 132.934232,16.9139785 132.934232,16.4408602 Z M137.811321,14.572043 C138.952291,14.572043 139.533962,13.4365591 139.533962,11.1892473 C139.533962,8.94193548 138.885175,7.80645161 137.565229,7.80645161 C137.050674,7.80645161 136.558491,7.9483871 136.088679,8.23225806 L136.088679,13.2473118 C136.558491,14.1462366 137.140162,14.572043 137.811321,14.572043 Z" id="Shape"></path>
                    <path d="M144.187332,14.027957 C144.187332,13.6021505 144.232075,13.2236559 144.299191,12.8924731 C144.366307,12.5376344 144.522911,12.1827957 144.791375,11.7806452 C145.037466,11.3784946 145.395418,11.0709677 145.820485,10.8107527 C146.827224,10.172043 148.326146,9.86451613 150.294879,9.86451613 L150.294879,9.1311828 C150.294879,8.27956989 149.73558,7.85376344 148.639353,7.85376344 C147.856334,7.85376344 147.095687,8.04301075 146.379784,8.39784946 C146.133693,8.51612903 145.977089,8.58709677 145.932345,8.58709677 C145.730997,8.58709677 145.484906,8.35053763 145.216442,7.90107527 C144.947978,7.42795699 144.836119,7.07311828 144.836119,6.78924731 C144.836119,6.38709677 145.216442,6.03225806 146.021833,5.70107527 C146.804852,5.39354839 147.766846,5.22795699 148.907817,5.22795699 C151.950404,5.22795699 153.471698,6.48172043 153.471698,8.9655914 L153.471698,13.1763441 C153.471698,14.0989247 153.516442,14.8795699 153.60593,15.5182796 L153.740162,16.4408602 C153.740162,16.6774194 153.449326,16.8666667 152.890027,16.9849462 C152.308356,17.1032258 151.883288,17.1741935 151.614825,17.1741935 C151.323989,17.1741935 151.145013,17.1505376 151.055526,17.0795699 C150.966038,17.0322581 150.898922,16.9139785 150.831806,16.772043 C150.787062,16.6301075 150.742318,16.511828 150.697574,16.4408602 C150.65283,16.3698925 150.630458,16.2043011 150.608086,15.9913978 C150.563342,15.7784946 150.54097,15.6602151 150.54097,15.6129032 C150.294879,16.0860215 149.847439,16.488172 149.221024,16.8193548 C148.594609,17.1505376 147.990566,17.316129 147.408895,17.316129 C146.312668,17.316129 145.52965,17.0086022 145.015094,16.4172043 C144.433423,15.8021505 144.187332,14.9978495 144.187332,14.027957 Z M147.297035,13.6731183 C147.297035,13.9806452 147.386523,14.2172043 147.565499,14.3827957 C147.744474,14.572043 148.03531,14.6430108 148.393261,14.6430108 C148.751213,14.6430108 149.131536,14.5010753 149.467116,14.2408602 C149.825067,13.9806452 150.093531,13.6258065 150.250135,13.2236559 L150.250135,11.9935484 C148.281402,12.0172043 147.297035,12.5849462 147.297035,13.6731183 Z" id="Shape"></path>
                    <path d="M155.060108,18.7827957 C155.060108,17.5763441 155.708895,16.7010753 156.984097,16.1806452 L157.006469,16.0860215 C156.402426,15.7548387 156.089218,15.2107527 156.089218,14.4301075 C156.089218,13.6494624 156.514286,13.0344086 157.36442,12.5376344 C156.22345,11.8752688 155.641779,10.7870968 155.641779,9.34408602 C155.641779,7.87741935 156.066846,6.83655914 156.894609,6.17419355 C157.744744,5.51182796 158.84097,5.20430108 160.20566,5.20430108 C160.76496,5.20430108 161.301887,5.27526882 161.838814,5.39354839 L165.261725,5.39354839 C165.686792,5.39354839 165.88814,5.77204301 165.88814,6.50537634 L165.88814,6.88387097 C165.88814,7.59354839 165.709164,7.9483871 165.373585,7.9483871 C165.015633,7.9483871 164.724798,7.92473118 164.478706,7.85376344 L164.433962,7.9483871 C164.657682,8.25591398 164.769542,8.68172043 164.769542,9.20215054 C164.769542,10.5268817 164.366846,11.5204301 163.561456,12.1827957 C162.756065,12.8451613 161.726954,13.1763441 160.42938,13.1763441 C159.556873,13.1763441 159.131806,13.3892473 159.131806,13.7913978 C159.131806,14.2172043 159.691105,14.5010753 160.809704,14.5956989 C161.928302,14.7139785 162.957412,14.9505376 163.919407,15.3290323 C164.389218,15.5182796 164.769542,15.8494624 165.105121,16.3225806 C165.418329,16.7956989 165.574933,17.3634409 165.574933,18.0731183 C165.574933,19.2322581 165.082749,20.1548387 164.076011,20.8408602 C163.069272,21.5268817 161.749326,21.8817204 160.116173,21.8817204 C156.738005,21.8817204 155.060108,20.8408602 155.060108,18.7827957 Z M158.102695,18.2387097 C158.102695,18.9010753 158.84097,19.255914 160.31752,19.255914 C161.79407,19.255914 162.532345,18.8774194 162.532345,18.1677419 C162.532345,17.8129032 162.286253,17.5763441 161.816442,17.4107527 C161.346631,17.2451613 160.496496,17.1268817 159.266038,17.0322581 C158.483019,17.316129 158.102695,17.7182796 158.102695,18.2387097 Z M159.06469,10.3612903 C159.355526,10.6215054 159.735849,10.7634409 160.20566,10.7634409 C160.675472,10.7634409 161.055795,10.6215054 161.346631,10.3612903 C161.637466,10.1010753 161.79407,9.69892473 161.79407,9.17849462 C161.79407,8.65806452 161.637466,8.25591398 161.346631,7.99569892 C161.055795,7.73548387 160.675472,7.59354839 160.20566,7.59354839 C159.735849,7.59354839 159.355526,7.73548387 159.06469,7.99569892 C158.773854,8.25591398 158.617251,8.65806452 158.617251,9.17849462 C158.617251,9.72258065 158.751482,10.1010753 159.06469,10.3612903 Z" id="Shape"></path>
                </g>
            </g>
        </g>
    </g>
</svg>