<?xml version="1.0" encoding="UTF-8"?>
<svg width="738px" height="104px" viewBox="0 0 738 104" version="1.1" xmlns="http://www.w3.org/2000/svg" xmlns:xlink="http://www.w3.org/1999/xlink">
    <!-- Generator: Sketch 50.2 (55047) - http://www.bohemiancoding.com/sketch -->
    <title>hashtaglunchbag-logo</title>
    <desc>Created with Sketch.</desc>
    <defs></defs>
    <g id="Page-1" stroke="none" stroke-width="1" fill="none" fill-rule="evenodd">
        <g id="TV-1" transform="translate(-944.000000, -106.000000)" fill-rule="nonzero">
            <g id="hashtaglunchbag-logo" transform="translate(944.000000, 106.000000)">
                <g id="Group">
                    <path d="M11.8,17.8033898 C10.1268657,18.2440678 8.45373134,19.3016949 7.13283582,21.6813559 C5.9,23.7966102 5.01940299,26.3525424 4.05074627,28.820339 C3.69850746,29.7016949 3.17014925,28.820339 3.52238806,27.9389831 C5.7238806,21.8576271 7.92537313,17.2745763 11.8,16.2169492 C12.3283582,16.1288136 12.3283582,17.6271186 11.8,17.8033898 Z" id="Shape" fill="#FFFFFF"></path>
                    <path d="M26.6820896,18.2440678 L26.6820896,18.7728814 C20.4298507,13.4847458 15.6746269,12.3389831 11.9761194,13.7491525 C6.25223881,15.8644068 3.25820896,24.3254237 1.67313433,32.4338983 C0,41.0711864 0,49.3559322 0,49.3559322 L20.8701493,86.8135593 L19.5492537,102.413559 L24.7447761,93.6881356 L30.1164179,103.294915 L29.4119403,85.7559322 L58.7358209,36.4 C58.7358209,36.4881356 62.258209,-31.5525424 26.6820896,18.2440678 Z M3.43432836,28.0271186 C5.6358209,21.9457627 7.83731343,17.3627119 11.7119403,16.3050847 C12.2402985,16.1288136 12.2402985,17.7152542 11.7119403,17.8915254 C10.038806,18.3322034 8.36567164,19.3898305 7.04477612,21.7694915 C5.8119403,23.8847458 4.93134328,26.440678 3.96268657,28.9084746 C3.69850746,29.7016949 3.17014925,28.9084746 3.43432836,28.0271186 Z" id="Shape" fill="#CE4159"></path>
                    <path d="M38.8343284,41.7762712 C41.6522388,41.159322 41.1238806,36.4 41.1238806,36.4 C40.9477612,32.9627119 36.6328358,35.5186441 36.6328358,35.5186441 L36.0164179,35.6949153 L37.9537313,28.9966102 C38.658209,21.9457627 34.6955224,24.4135593 34.6955224,24.4135593 C31.8776119,25.0305085 30.7328358,36.9288136 30.7328358,36.9288136 C30.7328358,37.0169492 30.7328358,37.1050847 30.6447761,37.2813559 L25.9776119,38.6915254 L28.1791045,30.6711864 C28.7955224,23.8847458 25.0970149,26.1762712 25.0970149,26.1762712 C22.4552239,26.7050847 21.3985075,38.2508475 21.3985075,38.2508475 C21.3104478,38.6033898 21.2223881,39.3084746 21.1343284,40.1016949 L9.24626866,43.5389831 L20.2537313,46.8881356 C20.0776119,48.0338983 19.9014925,49.2677966 19.8134328,50.5016949 L8.18955224,53.4101695 L18.8447761,57.1118644 C17.9641791,64.0745763 17.0835821,70.2440678 17.0835821,70.2440678 L20.7820896,56.759322 L28.0910448,54.9966102 C27.0343284,62.6644068 26.0656716,69.8915254 26.0656716,70.0677966 L30.5567164,54.379661 L37.4253731,52.7932203 C40.2432836,52.3525424 39.6268657,47.5050847 39.6268657,47.5050847 C39.4507463,44.0677966 35.1358209,46.4474576 35.1358209,46.4474576 L32.5820896,47.0644068 L33.7268657,43.0101695 L38.8343284,41.7762712 Z M29.1477612,48.1220339 L22.8955224,49.7084746 L23.9522388,45.9186441 L29.6761194,44.3322034 C29.5,45.4779661 29.3238806,46.8 29.1477612,48.1220339 Z" id="Shape" fill="#FFFFFF"></path>
                </g>
                <g id="Group" transform="translate(78.000000, 8.000000)" fill="#737373">
                    <path d="M0.711590296,62.0268817 L0.711590296,7.85376344 C0.711590296,6.0688172 2.40161725,5.17634409 5.78167116,5.17634409 L8.71698113,5.17634409 C12.097035,5.17634409 13.787062,6.0688172 13.787062,7.85376344 L13.787062,28.7376344 L36.5579515,28.7376344 L36.5579515,7.85376344 C36.5579515,6.0688172 38.2479784,5.17634409 41.6280323,5.17634409 L44.5633423,5.17634409 C47.9433962,5.17634409 49.6334232,6.0688172 49.6334232,7.85376344 L49.6334232,62.0268817 C49.6334232,63.811828 47.9433962,64.7043011 44.5633423,64.7043011 L41.6280323,64.7043011 C38.2479784,64.7043011 36.5579515,63.811828 36.5579515,62.0268817 L36.5579515,39.9827957 L13.787062,39.9827957 L13.787062,62.116129 C13.787062,63.9010753 12.097035,64.7935484 8.71698113,64.7935484 L5.78167116,64.7935484 C2.40161725,64.7043011 0.711590296,63.811828 0.711590296,62.0268817 Z" id="Shape"></path>
                    <path d="M59.0619946,52.9236559 C59.0619946,51.3172043 59.2398922,49.8892473 59.5067385,48.6397849 C59.7735849,47.3010753 60.3962264,45.9623656 61.4636119,44.4451613 C62.4420485,42.927957 63.8652291,41.7677419 65.5552561,40.7860215 C69.5579515,38.3763441 75.5175202,37.216129 83.3450135,37.216129 L83.3450135,34.4494624 C83.3450135,31.2365591 81.1212938,29.6301075 76.7628032,29.6301075 C73.6495957,29.6301075 70.6253369,30.344086 67.690027,31.6827957 C66.7115903,32.1290323 66.0889488,32.3967742 65.9110512,32.3967742 C65.1105121,32.3967742 64.1320755,31.5043011 63.06469,29.8086022 C61.9973046,28.0236559 61.4636119,26.6849462 61.4636119,25.6139785 C61.4636119,24.0967742 63.06469,22.7580645 66.1778976,21.5086022 C69.2911051,20.3483871 73.115903,19.7236559 77.6522911,19.7236559 C89.7493261,19.7236559 95.7978437,24.4537634 95.7978437,33.8247312 L95.7978437,49.7107527 C95.7978437,53.1913978 95.9757412,56.1365591 96.3315364,58.5462366 L96.8652291,62.0268817 C96.8652291,62.9193548 95.7088949,63.6333333 93.4851752,64.0795699 C91.1725067,64.5258065 89.4824798,64.7935484 88.4150943,64.7935484 C87.2587601,64.7935484 86.5471698,64.7043011 86.1913747,64.4365591 C85.8355795,64.2580645 85.5687332,63.811828 85.3018868,63.2763441 C85.0350404,62.7408602 84.9460916,62.2946237 84.7681941,62.0268817 C84.6792453,61.7591398 84.5013477,61.1344086 84.4123989,60.3311828 C84.2345013,59.527957 84.1455526,59.0817204 84.1455526,58.9032258 C83.1671159,60.688172 81.3881402,62.2053763 78.8975741,63.4548387 C76.4070081,64.7043011 74.0053908,65.3290323 71.6927224,65.3290323 C67.3342318,65.3290323 64.2210243,64.1688172 62.1752022,61.9376344 C60.0404313,59.6172043 59.0619946,56.5827957 59.0619946,52.9236559 Z M71.425876,51.5849462 C71.425876,52.7451613 71.7816712,53.6376344 72.4932615,54.2623656 C73.2048518,54.9763441 74.2722372,55.244086 75.7843666,55.244086 C77.2075472,55.244086 78.7196765,54.7086022 80.0539084,53.7268817 C81.4770889,52.7451613 82.5444744,51.4064516 83.1671159,49.8892473 L83.1671159,45.2483871 C75.4285714,45.3376344 71.425876,47.4795699 71.425876,51.5849462 Z" id="Shape"></path>
                    <path d="M104.070081,59.2602151 C104.070081,58.3677419 104.603774,57.1182796 105.671159,55.4225806 C106.738544,53.816129 107.716981,53.0129032 108.51752,53.0129032 C108.606469,53.0129032 109.673854,53.3698925 111.541779,54.1731183 C113.498652,54.9763441 115.188679,55.3333333 116.789757,55.3333333 C120.25876,55.3333333 121.948787,54.083871 121.948787,51.4956989 C121.948787,50.1569892 121.415094,49.0860215 120.25876,48.2827957 C119.102426,47.4795699 117.679245,46.7655914 116.078167,46.2301075 C114.38814,45.6946237 112.787062,44.9806452 111.097035,44.1774194 C109.407008,43.3741935 107.983827,42.1247312 106.916442,40.2505376 C105.760108,38.4655914 105.226415,36.1451613 105.226415,33.2892473 C105.226415,29.0946237 106.649596,25.7032258 109.407008,23.2935484 C112.16442,20.7946237 115.989218,19.6344086 120.792453,19.6344086 C123.016173,19.6344086 125.150943,19.9021505 127.196765,20.3483871 C131.28841,21.2408602 133.245283,22.8473118 133.245283,24.9892473 C133.245283,25.7032258 132.800539,26.9526882 132,28.6483871 C131.199461,30.344086 130.398922,31.2365591 129.598383,31.2365591 C129.509434,31.2365591 128.708895,30.9688172 127.107817,30.344086 C125.506739,29.7193548 123.90566,29.4516129 122.393531,29.4516129 C119.369272,29.4516129 117.857143,30.4333333 117.857143,32.4860215 C117.857143,33.6462366 118.390836,34.5387097 119.54717,35.2526882 C120.703504,35.9666667 122.126685,36.5913978 123.727763,37.216129 C125.41779,37.8408602 127.018868,38.5548387 128.708895,39.4473118 C130.398922,40.3397849 131.822102,41.6784946 132.889488,43.5526882 C134.045822,45.4268817 134.579515,47.7473118 134.579515,50.5139785 C134.579515,54.9763441 133.156334,58.5462366 130.221024,61.2236559 C127.285714,63.9010753 123.727763,65.2397849 119.369272,65.2397849 C115.010782,65.2397849 111.363881,64.7043011 108.428571,63.6333333 C105.58221,62.6516129 104.070081,61.1344086 104.070081,59.2602151 Z" id="Shape"></path>
                    <path d="M140.628032,62.0268817 L140.628032,3.48064516 C140.628032,1.69569892 142.318059,0.803225806 145.698113,0.803225806 L148.09973,0.803225806 C151.479784,0.803225806 153.169811,1.69569892 153.169811,3.48064516 L153.169811,25.4354839 C156.371968,21.5978495 160.374663,19.6344086 165.088949,19.6344086 C173.628032,19.6344086 177.808625,24.1860215 177.808625,33.3784946 L177.808625,62.116129 C177.808625,63.9010753 176.118598,64.7935484 172.738544,64.7935484 L170.336927,64.7935484 C166.956873,64.7935484 165.266846,63.9010753 165.266846,62.116129 L165.266846,35.1634409 C165.266846,31.6827957 163.487871,29.8978495 159.84097,29.8978495 C156.994609,29.8978495 154.770889,31.5043011 153.080863,34.8064516 L153.080863,61.9376344 C153.080863,63.7225806 151.390836,64.6150538 148.010782,64.6150538 L145.609164,64.6150538 C142.318059,64.7043011 140.628032,63.811828 140.628032,62.0268817 Z" id="Shape"></path>
                    <path d="M204.760108,55.3333333 L207.072776,54.9763441 C207.784367,54.9763441 208.407008,55.7795699 208.940701,57.4752688 C209.474394,59.1709677 209.652291,60.3311828 209.652291,61.0451613 C209.652291,63.811828 206.983827,65.2397849 201.557951,65.2397849 C193.374663,65.2397849 189.19407,60.688172 189.19407,51.4956989 L189.19407,30.1655914 L187.859838,30.1655914 C186.169811,30.1655914 185.369272,28.7376344 185.369272,25.9709677 L185.369272,24.5430108 C185.369272,21.6870968 186.169811,20.3483871 187.859838,20.3483871 L189.19407,20.3483871 L190.261456,12.316129 C190.528302,10.5311828 192.040431,9.63870968 194.797844,9.63870968 L197.377358,9.63870968 C200.22372,9.63870968 201.557951,10.5311828 201.557951,12.316129 L201.557951,20.3483871 L205.738544,20.3483871 C207.428571,20.3483871 208.229111,21.7763441 208.229111,24.5430108 L208.229111,25.9709677 C208.229111,28.8268817 207.428571,30.1655914 205.738544,30.1655914 L201.557951,30.1655914 L201.557951,51.6741935 C201.735849,54.1731183 202.714286,55.3333333 204.760108,55.3333333 Z" id="Shape"></path>
                    <path d="M215.167116,52.9236559 C215.167116,51.3172043 215.345013,49.8892473 215.61186,48.6397849 C215.878706,47.3010753 216.501348,45.9623656 217.568733,44.4451613 C218.54717,42.927957 219.97035,41.7677419 221.660377,40.7860215 C225.663073,38.3763441 231.622642,37.216129 239.450135,37.216129 L239.450135,34.4494624 C239.450135,31.2365591 237.226415,29.6301075 232.867925,29.6301075 C229.754717,29.6301075 226.730458,30.344086 223.884097,31.6827957 C222.90566,32.1290323 222.283019,32.3967742 222.105121,32.3967742 C221.304582,32.3967742 220.326146,31.5043011 219.25876,29.8086022 C218.191375,28.0236559 217.746631,26.6849462 217.746631,25.6139785 C217.746631,24.0967742 219.25876,22.7580645 222.460916,21.5086022 C225.574124,20.3483871 229.398922,19.7236559 233.93531,19.7236559 C246.032345,19.7236559 252.080863,24.4537634 252.080863,33.8247312 L252.080863,49.7107527 C252.080863,53.1913978 252.25876,56.1365591 252.614555,58.5462366 L253.148248,62.0268817 C253.148248,62.9193548 251.991914,63.6333333 249.768194,64.0795699 C247.455526,64.5258065 245.765499,64.7935484 244.698113,64.7935484 C243.541779,64.7935484 242.830189,64.7043011 242.474394,64.4365591 C242.118598,64.2580645 241.851752,63.811828 241.584906,63.2763441 C241.407008,62.7408602 241.229111,62.2946237 241.051213,62.0268817 C240.962264,61.7591398 240.784367,61.1344086 240.695418,60.3311828 C240.51752,59.527957 240.428571,59.0817204 240.428571,58.9032258 C239.450135,60.688172 237.671159,62.2053763 235.180593,63.4548387 C232.690027,64.7043011 230.28841,65.3290323 227.975741,65.3290323 C223.617251,65.3290323 220.504043,64.1688172 218.458221,61.9376344 C216.145553,59.6172043 215.167116,56.5827957 215.167116,52.9236559 Z M227.530997,51.5849462 C227.530997,52.7451613 227.886792,53.6376344 228.598383,54.2623656 C229.309973,54.9763441 230.466307,55.244086 231.889488,55.244086 C233.312668,55.244086 234.824798,54.7086022 236.15903,53.7268817 C237.58221,52.7451613 238.649596,51.4064516 239.272237,49.8892473 L239.272237,45.2483871 C231.533693,45.3376344 227.530997,47.4795699 227.530997,51.5849462 Z" id="Shape"></path>
                    <path d="M258.84097,70.8623656 C258.84097,66.3107527 261.420485,63.0086022 266.490566,61.0451613 L266.579515,60.688172 C264.177898,59.4387097 262.932615,57.3860215 262.932615,54.4408602 C262.932615,51.4956989 264.622642,49.1752688 268.002695,47.3010753 C263.466307,44.8021505 261.153639,40.6967742 261.153639,35.2526882 C261.153639,29.7193548 262.843666,25.7924731 266.134771,23.2935484 C269.514825,20.7946237 273.873315,19.6344086 279.299191,19.6344086 C281.522911,19.6344086 283.657682,19.9021505 285.792453,20.3483871 L299.401617,20.3483871 C301.091644,20.3483871 301.892183,21.7763441 301.892183,24.5430108 L301.892183,25.9709677 C301.892183,28.6483871 301.180593,29.9870968 299.846361,29.9870968 C298.423181,29.9870968 297.266846,29.8978495 296.28841,29.6301075 L296.110512,29.9870968 C297,31.1473118 297.444744,32.7537634 297.444744,34.7172043 C297.444744,39.7150538 295.843666,43.4634409 292.641509,45.9623656 C289.439353,48.4612903 285.347709,49.7107527 280.188679,49.7107527 C276.719677,49.7107527 275.02965,50.5139785 275.02965,52.0311828 C275.02965,53.6376344 277.253369,54.7086022 281.700809,55.0655914 C286.148248,55.511828 290.239892,56.4043011 294.06469,57.8322581 C295.932615,58.5462366 297.444744,59.7956989 298.778976,61.5806452 C300.024259,63.3655914 300.6469,65.5075269 300.6469,68.1849462 C300.6469,72.5580645 298.690027,76.0387097 294.687332,78.6268817 C290.684636,81.2150538 285.436658,82.5537634 278.943396,82.5537634 C265.512129,82.5537634 258.84097,78.6268817 258.84097,70.8623656 Z M270.938005,68.8096774 C270.938005,71.3086022 273.873315,72.6473118 279.743935,72.6473118 C285.614555,72.6473118 288.549865,71.2193548 288.549865,68.5419355 C288.549865,67.2032258 287.571429,66.3107527 285.703504,65.6860215 C283.83558,65.0612903 280.455526,64.6150538 275.563342,64.2580645 C272.450135,65.3290323 270.938005,66.8462366 270.938005,68.8096774 Z M274.762803,39.0903226 C275.919137,40.072043 277.431267,40.6075269 279.299191,40.6075269 C281.167116,40.6075269 282.679245,40.072043 283.83558,39.0903226 C284.991914,38.1086022 285.614555,36.5913978 285.614555,34.627957 C285.614555,32.6645161 284.991914,31.1473118 283.83558,30.1655914 C282.679245,29.183871 281.167116,28.6483871 279.299191,28.6483871 C277.431267,28.6483871 275.919137,29.183871 274.762803,30.1655914 C273.606469,31.1473118 272.983827,32.6645161 272.983827,34.627957 C272.983827,36.6806452 273.606469,38.1086022 274.762803,39.0903226 Z" id="Shape"></path>
                    <path d="M308.652291,61.2236559 L308.652291,7.85376344 C308.652291,6.0688172 310.342318,5.17634409 313.722372,5.17634409 L316.568733,5.17634409 C319.948787,5.17634409 321.638814,6.0688172 321.638814,7.85376344 L321.638814,53.4591398 L340.495957,53.4591398 C342.185984,53.4591398 342.986523,54.8870968 342.986523,57.6537634 L342.986523,60.2419355 C342.986523,63.0978495 342.185984,64.4365591 340.495957,64.4365591 L312.032345,64.4365591 C309.808625,64.6150538 308.652291,63.4548387 308.652291,61.2236559 Z" id="Shape"></path>
                    <path d="M348.679245,51.4956989 L348.679245,22.8473118 C348.679245,21.0623656 350.369272,20.1698925 353.749326,20.1698925 L356.150943,20.1698925 C359.530997,20.1698925 361.221024,21.0623656 361.221024,22.8473118 L361.221024,49.7107527 C361.221024,53.1913978 362.911051,54.9763441 366.291105,54.9763441 C369.137466,54.9763441 371.361186,53.3698925 373.051213,50.0677419 L373.051213,22.8473118 C373.051213,21.0623656 374.74124,20.1698925 378.121294,20.1698925 L380.522911,20.1698925 C383.902965,20.1698925 385.592992,21.0623656 385.592992,22.8473118 L385.592992,49.7107527 C385.592992,53.1913978 385.770889,56.1365591 386.126685,58.5462366 L386.660377,62.0268817 C386.660377,62.9193548 385.504043,63.6333333 383.280323,64.0795699 C380.967655,64.5258065 379.277628,64.7935484 378.210243,64.7935484 C377.142857,64.7935484 376.342318,64.7043011 375.986523,64.4365591 C375.630728,64.2580645 375.363881,63.811828 375.097035,63.2763441 C374.830189,62.7408602 374.74124,62.2946237 374.563342,62.0268817 C374.474394,61.7591398 374.296496,61.1344086 374.207547,60.3311828 C374.02965,59.527957 373.940701,59.0817204 373.940701,58.9032258 C372.606469,60.688172 370.827493,62.2053763 368.603774,63.4548387 C366.380054,64.7043011 363.978437,65.3290323 361.398922,65.3290323 C357.218329,65.3290323 354.016173,64.1688172 352.059299,61.9376344 C349.657682,59.7064516 348.679245,56.2258065 348.679245,51.4956989 Z" id="Shape"></path>
                    <path d="M395.911051,62.0268817 L395.911051,35.1634409 C395.911051,30.9688172 395.733154,27.9344086 395.377358,26.2387097 C395.021563,24.5430108 394.843666,23.5612903 394.843666,23.2043011 C394.843666,22.311828 396,21.5978495 398.22372,21.1516129 C400.536388,20.7053763 402.226415,20.4376344 403.293801,20.4376344 C404.450135,20.4376344 405.161725,20.5268817 405.51752,20.7946237 C405.873315,21.0623656 406.140162,21.3301075 406.407008,21.8655914 C406.673854,22.4010753 406.762803,22.7580645 406.940701,23.0258065 C407.02965,23.2935484 407.207547,23.8290323 407.296496,24.6322581 C407.474394,25.3462366 407.563342,25.7924731 407.563342,25.9709677 C408.897574,24.1860215 410.67655,22.6688172 412.989218,21.4193548 C415.212938,20.1698925 417.614555,19.5451613 420.19407,19.5451613 C424.374663,19.5451613 427.576819,20.7053763 429.533693,22.8473118 C431.579515,25.0784946 432.557951,28.5591398 432.557951,33.2 L432.557951,61.9376344 C432.557951,63.7225806 430.867925,64.6150538 427.487871,64.6150538 L425.086253,64.6150538 C421.706199,64.6150538 420.016173,63.7225806 420.016173,61.9376344 L420.016173,35.1634409 C420.016173,31.6827957 418.326146,29.8978495 414.946092,29.8978495 C412.09973,29.8978495 409.876011,31.5043011 408.185984,34.8064516 L408.185984,61.9376344 C408.185984,63.7225806 406.495957,64.6150538 403.115903,64.6150538 L400.714286,64.6150538 C397.601078,64.7043011 395.911051,63.811828 395.911051,62.0268817 Z" id="Shape"></path>
                    <path d="M444.832884,59.7064516 C441.363881,56.0473118 439.584906,50.3354839 439.584906,42.6602151 C439.584906,34.9849462 441.363881,29.2731183 444.832884,25.3462366 C448.301887,21.5086022 453.816712,19.5451613 461.28841,19.5451613 C464.757412,19.5451613 467.87062,20.0806452 470.894879,21.1516129 C473.830189,22.2225806 475.342318,23.6505376 475.342318,25.4354839 C475.342318,26.2387097 474.808625,27.5774194 473.652291,29.3623656 C472.495957,31.1473118 471.606469,31.9505376 470.894879,31.9505376 C470.628032,31.9505376 470.183288,31.772043 469.382749,31.3258065 C466.892183,30.0763441 464.22372,29.4516129 461.377358,29.4516129 C458.530997,29.4516129 456.307278,30.5225806 454.795148,32.5752688 C453.283019,34.7172043 452.48248,37.9301075 452.48248,42.3032258 C452.48248,46.6763441 453.19407,49.9784946 454.617251,52.1204301 C456.040431,54.2623656 458.264151,55.3333333 461.199461,55.3333333 C464.134771,55.3333333 466.981132,54.7086022 469.738544,53.3698925 C470.628032,53.0129032 471.161725,52.8344086 471.250674,52.8344086 C472.051213,52.8344086 473.02965,53.6376344 474.097035,55.3333333 C475.16442,57.0290323 475.698113,58.3677419 475.698113,59.3494624 C475.698113,60.3311828 475.075472,61.3129032 473.830189,62.116129 C472.584906,62.9193548 471.072776,63.544086 469.382749,63.9903226 C465.735849,64.7935484 462.978437,65.1505376 460.932615,65.1505376 C453.638814,65.2397849 448.301887,63.4548387 444.832884,59.7064516 Z" id="Shape"></path>
                    <path d="M482.54717,62.0268817 L482.54717,3.48064516 C482.54717,1.69569892 484.237197,0.803225806 487.617251,0.803225806 L490.018868,0.803225806 C493.398922,0.803225806 495.088949,1.69569892 495.088949,3.48064516 L495.088949,25.4354839 C498.291105,21.5978495 502.293801,19.6344086 507.008086,19.6344086 C515.54717,19.6344086 519.727763,24.1860215 519.727763,33.3784946 L519.727763,62.116129 C519.727763,63.9010753 518.037736,64.7935484 514.657682,64.7935484 L512.256065,64.7935484 C508.876011,64.7935484 507.185984,63.9010753 507.185984,62.116129 L507.185984,35.1634409 C507.185984,31.6827957 505.407008,29.8978495 501.760108,29.8978495 C498.913747,29.8978495 496.690027,31.5043011 495,34.8064516 L495,61.9376344 C495,63.7225806 493.309973,64.6150538 489.929919,64.6150538 L487.528302,64.6150538 C484.237197,64.7043011 482.54717,63.811828 482.54717,62.0268817 Z" id="Shape"></path>
                    <path d="M528.533693,62.0268817 L528.533693,3.48064516 C528.533693,1.69569892 530.22372,0.803225806 533.603774,0.803225806 L536.005391,0.803225806 C539.385445,0.803225806 541.075472,1.69569892 541.075472,3.48064516 L541.075472,22.311828 C543.477089,20.5268817 546.32345,19.7236559 549.703504,19.7236559 C555.307278,19.7236559 559.665768,21.7763441 562.867925,25.8817204 C565.981132,29.9870968 567.58221,35.6096774 567.58221,42.6602151 C567.58221,49.7107527 566.15903,55.3333333 563.22372,59.3494624 C560.28841,63.3655914 556.463612,65.4182796 551.838275,65.4182796 C549.347709,65.4182796 547.03504,64.7935484 545.078167,63.6333333 C543.121294,62.4731183 541.609164,60.955914 540.541779,59.0817204 L539.74124,62.7408602 C539.385445,64.1688172 537.784367,64.972043 534.849057,64.972043 L533.87062,64.972043 C530.22372,64.7043011 528.533693,63.811828 528.533693,62.0268817 Z M547.924528,54.9763441 C552.460916,54.9763441 554.773585,50.6924731 554.773585,42.2139785 C554.773585,33.7354839 552.19407,29.4516129 546.946092,29.4516129 C544.90027,29.4516129 542.943396,29.9870968 541.075472,31.0580645 L541.075472,49.9784946 C542.943396,53.3698925 545.256065,54.9763441 547.924528,54.9763441 Z" id="Shape"></path>
                    <path d="M573.274933,52.9236559 C573.274933,51.3172043 573.45283,49.8892473 573.719677,48.6397849 C573.986523,47.3010753 574.609164,45.9623656 575.67655,44.4451613 C576.654987,42.927957 578.078167,41.7677419 579.768194,40.7860215 C583.770889,38.3763441 589.730458,37.216129 597.557951,37.216129 L597.557951,34.4494624 C597.557951,31.2365591 595.334232,29.6301075 590.975741,29.6301075 C587.862534,29.6301075 584.838275,30.344086 581.991914,31.6827957 C581.013477,32.1290323 580.390836,32.3967742 580.212938,32.3967742 C579.412399,32.3967742 578.433962,31.5043011 577.366577,29.8086022 C576.299191,28.0236559 575.854447,26.6849462 575.854447,25.6139785 C575.854447,24.0967742 577.366577,22.7580645 580.568733,21.5086022 C583.681941,20.3483871 587.506739,19.7236559 592.043127,19.7236559 C604.140162,19.7236559 610.188679,24.4537634 610.188679,33.8247312 L610.188679,49.7107527 C610.188679,53.1913978 610.366577,56.1365591 610.722372,58.5462366 L611.256065,62.0268817 C611.256065,62.9193548 610.09973,63.6333333 607.876011,64.0795699 C605.563342,64.5258065 603.873315,64.7935484 602.80593,64.7935484 C601.649596,64.7935484 600.938005,64.7043011 600.58221,64.4365591 C600.226415,64.2580645 599.959569,63.811828 599.692722,63.2763441 C599.514825,62.7408602 599.336927,62.2946237 599.15903,62.0268817 C598.981132,61.7591398 598.892183,61.1344086 598.803235,60.3311828 C598.625337,59.527957 598.536388,59.0817204 598.536388,58.9032258 C597.557951,60.688172 595.778976,62.2053763 593.28841,63.4548387 C590.797844,64.7043011 588.396226,65.3290323 586.083558,65.3290323 C581.725067,65.3290323 578.61186,64.1688172 576.566038,61.9376344 C574.253369,59.6172043 573.274933,56.5827957 573.274933,52.9236559 Z M585.638814,51.5849462 C585.638814,52.7451613 585.994609,53.6376344 586.706199,54.2623656 C587.41779,54.9763441 588.574124,55.244086 589.997305,55.244086 C591.420485,55.244086 592.932615,54.7086022 594.266846,53.7268817 C595.690027,52.7451613 596.757412,51.4064516 597.380054,49.8892473 L597.380054,45.2483871 C589.552561,45.3376344 585.638814,47.4795699 585.638814,51.5849462 Z" id="Shape"></path>
                    <path d="M616.504043,70.8623656 C616.504043,66.3107527 619.083558,63.0086022 624.153639,61.0451613 L624.242588,60.688172 C621.84097,59.4387097 620.595687,57.3860215 620.595687,54.4408602 C620.595687,51.4956989 622.285714,49.1752688 625.665768,47.3010753 C621.12938,44.8021505 618.816712,40.6967742 618.816712,35.2526882 C618.816712,29.7193548 620.506739,25.7924731 623.797844,23.2935484 C627.177898,20.7946237 631.536388,19.6344086 636.962264,19.6344086 C639.185984,19.6344086 641.320755,19.9021505 643.455526,20.3483871 L657.06469,20.3483871 C658.754717,20.3483871 659.555256,21.7763441 659.555256,24.5430108 L659.555256,25.9709677 C659.555256,28.6483871 658.843666,29.9870968 657.509434,29.9870968 C656.086253,29.9870968 654.929919,29.8978495 653.951482,29.6301075 L653.773585,29.9870968 C654.663073,31.1473118 655.107817,32.7537634 655.107817,34.7172043 C655.107817,39.7150538 653.506739,43.4634409 650.304582,45.9623656 C647.102426,48.4612903 643.010782,49.7107527 637.851752,49.7107527 C634.382749,49.7107527 632.692722,50.5139785 632.692722,52.0311828 C632.692722,53.6376344 634.916442,54.7086022 639.363881,55.0655914 C643.811321,55.511828 647.902965,56.4043011 651.727763,57.8322581 C653.595687,58.5462366 655.107817,59.7956989 656.442049,61.5806452 C657.687332,63.3655914 658.309973,65.5075269 658.309973,68.1849462 C658.309973,72.5580645 656.3531,76.0387097 652.350404,78.6268817 C648.347709,81.2150538 643.09973,82.5537634 636.606469,82.5537634 C623.175202,82.5537634 616.504043,78.6268817 616.504043,70.8623656 Z M628.601078,68.8096774 C628.601078,71.3086022 631.536388,72.6473118 637.407008,72.6473118 C643.277628,72.6473118 646.212938,71.2193548 646.212938,68.5419355 C646.212938,67.2032258 645.234501,66.3107527 643.366577,65.6860215 C641.498652,65.0612903 638.118598,64.6150538 633.226415,64.2580645 C630.113208,65.3290323 628.601078,66.8462366 628.601078,68.8096774 Z M632.425876,39.0903226 C633.58221,40.072043 635.09434,40.6075269 636.962264,40.6075269 C638.830189,40.6075269 640.342318,40.072043 641.498652,39.0903226 C642.654987,38.1086022 643.277628,36.5913978 643.277628,34.627957 C643.277628,32.6645161 642.654987,31.1473118 641.498652,30.1655914 C640.342318,29.183871 638.830189,28.6483871 636.962264,28.6483871 C635.09434,28.6483871 633.58221,29.183871 632.425876,30.1655914 C631.269542,31.1473118 630.6469,32.6645161 630.6469,34.627957 C630.6469,36.6806452 631.180593,38.1086022 632.425876,39.0903226 Z" id="Shape"></path>
                </g>
            </g>
        </g>
    </g>
</svg>