<?xml version="1.0" encoding="UTF-8"?>
<svg width="191px" height="41px" viewBox="0 0 191 41" version="1.1" xmlns="http://www.w3.org/2000/svg" xmlns:xlink="http://www.w3.org/1999/xlink">
    <!-- Generator: Sketch 50.2 (55047) - http://www.bohemiancoding.com/sketch -->
    <title>Microsoft_logo_(2012)</title>
    <desc>Created with Sketch.</desc>
    <defs></defs>
    <g id="mobile" stroke="none" stroke-width="1" fill="none" fill-rule="evenodd">
        <g id="Mobile---Organize" transform="translate(-92.000000, -66.000000)" fill-rule="nonzero">
            <g id="Microsoft_logo_(2012)" transform="translate(92.000000, 66.000000)">
                <g id="Group" transform="translate(53.000000, 7.000000)" fill="#FFFFFF">
                    <path d="M14.5894737,17.2482353 L13.4526316,20.4882353 L13.3578947,20.4882353 C13.1684211,19.7576471 12.8210526,18.6458824 12.2526316,17.3117647 L6.15789474,1.90588235 L0.189473684,1.90588235 L0.189473684,26.46 L4.13684211,26.46 L4.13684211,11.3082353 C4.13684211,10.3552941 4.13684211,9.27529412 4.10526316,7.94117647 C4.07368421,7.27411765 4.01052632,6.76588235 3.97894737,6.38470588 L4.07368421,6.38470588 C4.26315789,7.33764706 4.48421053,8.03647059 4.64210526,8.48117647 L11.9684211,26.3964706 L14.7473684,26.3964706 L22.0105263,8.32235294 C22.1684211,7.90941176 22.3263158,7.08352941 22.4842105,6.38470588 L22.5789474,6.38470588 C22.4842105,8.19529412 22.4210526,9.81529412 22.3894737,10.8 L22.3894737,26.3647059 L26.5894737,26.3647059 L26.5894737,1.84235294 L20.8421053,1.84235294 L14.5894737,17.2482353 Z M30.5684211,8.76705882 L34.6736842,8.76705882 L34.6736842,26.3647059 L30.5684211,26.3647059 L30.5684211,8.76705882 Z M32.6526316,1.33411765 C31.9578947,1.33411765 31.3894737,1.58823529 30.9157895,2.03294118 C30.4421053,2.47764706 30.1894737,3.04941176 30.1894737,3.74823529 C30.1894737,4.41529412 30.4421053,4.98705882 30.9157895,5.43176471 C31.3894737,5.87647059 31.9578947,6.09882353 32.6526316,6.09882353 C33.3473684,6.09882353 33.9473684,5.84470588 34.3894737,5.43176471 C34.8631579,4.98705882 35.1157895,4.41529412 35.1157895,3.74823529 C35.1157895,3.08117647 34.8631579,2.50941176 34.3894737,2.03294118 C33.9789474,1.58823529 33.3789474,1.33411765 32.6526316,1.33411765 Z M49.2315789,8.60823529 C48.4736842,8.44941176 47.6842105,8.35411765 46.9263158,8.35411765 C45.0631579,8.35411765 43.3578947,8.76705882 41.9368421,9.59294118 C40.5157895,10.4188235 39.3789474,11.5623529 38.6526316,12.9917647 C37.8947368,14.4529412 37.5157895,16.1364706 37.5157895,18.0741176 C37.5157895,19.7576471 37.8947368,21.2505882 38.6210526,22.6164706 C39.3473684,23.9505882 40.3578947,25.0305882 41.7157895,25.7611765 C43.0105263,26.4917647 44.5263158,26.8729412 46.2315789,26.8729412 C48.1894737,26.8729412 49.8631579,26.46 51.1894737,25.6976471 L51.2210526,25.6658824 L51.2210526,21.8541176 L51.0631579,21.9811765 C50.4631579,22.4258824 49.7684211,22.8070588 49.0736842,23.0294118 C48.3473684,23.2835294 47.6842105,23.4105882 47.1157895,23.4105882 C45.4736842,23.4105882 44.1789474,22.9341176 43.2631579,21.8858824 C42.3157895,20.8694118 41.8421053,19.4717647 41.8421053,17.7247059 C41.8421053,15.9141176 42.3157895,14.4847059 43.2947368,13.4364706 C44.2736842,12.3882353 45.5684211,11.8482353 47.1473684,11.8482353 C48.4736842,11.8482353 49.8315789,12.2929412 51.0631579,13.1823529 L51.2210526,13.3094118 L51.2210526,9.27529412 L51.1894737,9.24352941 C50.6526316,9.02117647 50.0526316,8.76705882 49.2315789,8.60823529 Z M62.7789474,8.48117647 C61.7684211,8.48117647 60.8210526,8.79882353 60,9.46588235 C59.3052632,10.0376471 58.8315789,10.8635294 58.4210526,11.8482353 L58.3894737,11.8482353 L58.3894737,8.76705882 L54.2842105,8.76705882 L54.2842105,26.3647059 L58.3894737,26.3647059 L58.3894737,17.3752941 C58.3894737,15.8505882 58.7052632,14.58 59.4,13.6588235 C60.0947368,12.7058824 60.9789474,12.2294118 62.0526316,12.2294118 C62.4315789,12.2294118 62.8105263,12.3247059 63.2842105,12.3882353 C63.7263158,12.5152941 64.0421053,12.6423529 64.2631579,12.8011765 L64.4210526,12.9282353 L64.4210526,8.79882353 L64.3263158,8.76705882 C64.0421053,8.57647059 63.4736842,8.48117647 62.7789474,8.48117647 Z M73.9578947,8.38588235 C71.0842105,8.38588235 68.7789474,9.24352941 67.1684211,10.9270588 C65.5263158,12.6105882 64.7368421,14.9294118 64.7368421,17.8517647 C64.7368421,20.5835294 65.5578947,22.8070588 67.1368421,24.4270588 C68.7157895,26.0152941 70.8631579,26.8411765 73.5473684,26.8411765 C76.3578947,26.8411765 78.6,25.9835294 80.2105263,24.2682353 C81.8526316,22.5529412 82.6421053,20.2658824 82.6421053,17.4388235 C82.6421053,14.6435294 81.8842105,12.42 80.3368421,10.8 C78.8526316,9.18 76.6736842,8.38588235 73.9578947,8.38588235 Z M77.2421053,21.9176471 C76.4842105,22.9023529 75.2842105,23.3788235 73.8,23.3788235 C72.3157895,23.3788235 71.1157895,22.9023529 70.2631579,21.8541176 C69.4105263,20.8694118 69,19.44 69,17.6294118 C69,15.7552941 69.4421053,14.3258824 70.2631579,13.3094118 C71.1157895,12.2929412 72.2842105,11.7847059 73.7684211,11.7847059 C75.2210526,11.7847059 76.3578947,12.2611765 77.1789474,13.2458824 C78,14.2305882 78.4421053,15.66 78.4421053,17.5341176 C78.3789474,19.44 78.0315789,20.9329412 77.2421053,21.9176471 Z M91.8,16.0729412 C90.5052632,15.5329412 89.6842105,15.12 89.3052632,14.7705882 C88.9894737,14.4529412 88.8315789,14.0082353 88.8315789,13.4364706 C88.8315789,12.96 89.0210526,12.4835294 89.4947368,12.1658824 C89.9684211,11.8482353 90.5052632,11.6894118 91.2947368,11.6894118 C91.9894737,11.6894118 92.7157895,11.8164706 93.4105263,12.0070588 C94.1052632,12.1976471 94.7368421,12.4835294 95.2421053,12.8647059 L95.4,12.9917647 L95.4,9.11647059 L95.3052632,9.08470588 C94.8315789,8.89411765 94.2,8.70352941 93.4421053,8.54470588 C92.6842105,8.41764706 91.9894737,8.35411765 91.4210526,8.35411765 C89.4631579,8.35411765 87.8526316,8.83058824 86.5894737,9.87882353 C85.3263158,10.8635294 84.7263158,12.1976471 84.7263158,13.7541176 C84.7263158,14.58 84.8526316,15.3105882 85.1368421,15.9141176 C85.4210526,16.5176471 85.8315789,17.0894118 86.4,17.5658824 C86.9684211,18.0105882 87.7894737,18.5188235 88.9263158,18.9952941 C89.8736842,19.4082353 90.6,19.7258824 91.0421053,19.98 C91.4842105,20.2341176 91.7684211,20.52 91.9894737,20.7423529 C92.1473684,20.9964706 92.2421053,21.3141176 92.2421053,21.7270588 C92.2421053,22.9023529 91.3578947,23.4741176 89.5578947,23.4741176 C88.8631579,23.4741176 88.1368421,23.3470588 87.2842105,23.0611765 C86.4315789,22.7752941 85.6421053,22.3623529 84.9789474,21.8858824 L84.8210526,21.7588235 L84.8210526,25.7929412 L84.9157895,25.8247059 C85.5157895,26.1105882 86.2421053,26.3011765 87.1263158,26.5235294 C88.0105263,26.6823529 88.8,26.8094118 89.4947368,26.8094118 C91.6105263,26.8094118 93.3473684,26.3329412 94.5789474,25.2847059 C95.8421053,24.2682353 96.5052632,22.9658824 96.5052632,21.2823529 C96.5052632,20.1070588 96.1894737,19.0588235 95.4947368,18.2647059 C94.5789474,17.5023529 93.4421053,16.7082353 91.8,16.0729412 Z M107.336842,8.38588235 C104.463158,8.38588235 102.157895,9.24352941 100.547368,10.9270588 C98.9368421,12.6105882 98.1157895,14.9294118 98.1157895,17.8517647 C98.1157895,20.5835294 98.9368421,22.8070588 100.515789,24.4270588 C102.094737,26.0152941 104.242105,26.8411765 106.926316,26.8411765 C109.736842,26.8411765 111.978947,25.9835294 113.589474,24.2682353 C115.231579,22.5529412 116.021053,20.2658824 116.021053,17.4388235 C116.021053,14.6435294 115.263158,12.42 113.715789,10.8 C112.231579,9.18 110.052632,8.38588235 107.336842,8.38588235 Z M110.589474,21.9176471 C109.831579,22.9023529 108.631579,23.3788235 107.147368,23.3788235 C105.631579,23.3788235 104.463158,22.9023529 103.610526,21.8541176 C102.757895,20.8694118 102.347368,19.44 102.347368,17.6294118 C102.347368,15.7552941 102.789474,14.3258824 103.610526,13.3094118 C104.463158,12.2929412 105.631579,11.7847059 107.115789,11.7847059 C108.536842,11.7847059 109.705263,12.2611765 110.526316,13.2458824 C111.347368,14.2305882 111.789474,15.66 111.789474,17.5341176 C111.789474,19.44 111.378947,20.9329412 110.589474,21.9176471 Z" id="Shape"></path>
                    <path d="M137.968421,12.1658824 L137.968421,8.76705882 L133.831579,8.76705882 L133.831579,3.55764706 L133.705263,3.58941176 L129.789474,4.76470588 L129.694737,4.79647059 L129.694737,8.76705882 L123.505263,8.76705882 L123.505263,6.54352941 C123.505263,5.52705882 123.757895,4.73294118 124.2,4.22470588 C124.642105,3.71647059 125.305263,3.46235294 126.126316,3.46235294 C126.694737,3.46235294 127.294737,3.58941176 127.957895,3.87529412 L128.115789,3.97058824 L128.115789,0.381176471 L128.021053,0.349411765 C127.452632,0.158823529 126.694737,0.0317647059 125.715789,0.0317647059 C124.484211,0.0317647059 123.410526,0.317647059 122.431579,0.794117647 C121.452632,1.33411765 120.726316,2.06470588 120.189474,3.04941176 C119.652632,4.00235294 119.368421,5.08235294 119.368421,6.32117647 L119.368421,8.76705882 L116.494737,8.76705882 L116.494737,12.1341176 L119.368421,12.1341176 L119.368421,26.3647059 L123.505263,26.3647059 L123.505263,12.1658824 L129.694737,12.1658824 L129.694737,21.2188235 C129.694737,24.9352941 131.431579,26.8094118 134.905263,26.8094118 C135.473684,26.8094118 136.073684,26.7141176 136.642105,26.6188235 C137.242105,26.4917647 137.684211,26.3329412 137.936842,26.2058824 L137.968421,26.1741176 L137.968421,22.7752941 L137.810526,22.9023529 C137.557895,23.0611765 137.336842,23.1882353 136.957895,23.2835294 C136.642105,23.3788235 136.357895,23.4105882 136.136842,23.4105882 C135.315789,23.4105882 134.747368,23.22 134.336842,22.7435294 C133.957895,22.2988235 133.768421,21.5682353 133.768421,20.4882353 L133.768421,12.1658824 L137.968421,12.1658824 Z" id="Shape"></path>
                </g>
                <polygon id="Shape" fill="#F25022" points="0 0 20 0 20 20 0 20"></polygon>
                <polygon id="Shape" fill="#7FBA00" points="21 0 41 0 41 20 21 20"></polygon>
                <polygon id="Shape" fill="#00A4EF" points="0 21 20 21 20 41 0 41"></polygon>
                <polygon id="Shape" fill="#FFB900" points="21 21 41 21 41 41 21 41"></polygon>
            </g>
        </g>
    </g>
</svg>