<?xml version="1.0" encoding="utf-8"?>
<!-- Generator: Adobe Illustrator 18.1.0, SVG Export Plug-In . SVG Version: 6.00 Build 0)  -->
<!DOCTYPE svg PUBLIC "-//W3C//DTD SVG 1.1//EN" "http://www.w3.org/Graphics/SVG/1.1/DTD/svg11.dtd">
<svg version="1.1" id="Layer_1" xmlns="http://www.w3.org/2000/svg" xmlns:xlink="http://www.w3.org/1999/xlink" x="0px" y="0px"
	 viewBox="7.2 0.1 18.7 32.9" enable-background="new 7.2 0.1 18.7 32.9" xml:space="preserve">
<path fill="#FFFFFF" d="M14,4.9v7.4c0,0.1,0,0.2-0.1,0.2c0,0-0.1,0.1-0.2,0.1H7.4C7.8,8.5,9.3,2.2,14,4.9z"/>
<path fill="#CE4159" d="M15.7,5.9l0,0.2c-0.6-0.5-1.1-0.9-1.6-1.1c-4.7-2.7-6.2,3.6-6.7,7.7c-0.2,1.8-0.2,3.2-0.2,3.2l6.6,11.9
	l-0.4,5l1.7-2.8l1.7,3.1l-0.2-5.6l9.3-15.7C25.9,11.7,27-10,15.7,5.9z M10.9,5.7C10.4,5.9,9.8,6.2,9.4,7C9,7.6,8.7,8.5,8.4,9.2
	C8.3,9.5,8.2,9.2,8.3,9C9,7.1,9.7,5.6,10.9,5.2C11.1,5.2,11.1,5.7,10.9,5.7z"/>
<path fill="#FFFFFF" d="M19.5,13.4c0.9-0.2,0.7-1.7,0.7-1.7c0-1.1-1.4-0.3-1.4-0.3l-0.2,0.1l0.6-2.1c0.2-2.2-1-1.5-1-1.5
	c-0.9,0.2-1.3,4-1.3,4c0,0,0,0.1,0,0.1l-1.5,0.4l0.7-2.6c0.2-2.2-1-1.4-1-1.4c-0.8,0.2-1.2,3.8-1.2,3.8c0,0.1,0,0.3-0.1,0.6
	l-3.8,1.1l3.5,1.1c0,0.4-0.1,0.8-0.2,1.2l-3.7,0.9l3.4,1.2l0,0c-0.3,2.2-0.5,4.2-0.5,4.2l1.2-4.3l2.3-0.5c-0.3,2.4-0.6,4.7-0.6,4.8
	l1.4-5l2.2-0.5c0.9-0.2,0.7-1.7,0.7-1.7c0-1.1-1.4-0.3-1.4-0.3l-0.8,0.2l0.4-1.3L19.5,13.4z M16.4,15.4l-2,0.5l0.3-1.2l1.8-0.5
	C16.5,14.5,16.5,15,16.4,15.4z"/>
</svg>
