<?xml version="1.0" encoding="utf-8"?>
<!-- Generator: Adobe Illustrator 18.1.0, SVG Export Plug-In . SVG Version: 6.00 Build 0)  -->
<!DOCTYPE svg PUBLIC "-//W3C//DTD SVG 1.1//EN" "http://www.w3.org/Graphics/SVG/1.1/DTD/svg11.dtd">
<svg version="1.1" id="Layer_1" xmlns="http://www.w3.org/2000/svg" xmlns:xlink="http://www.w3.org/1999/xlink" x="0px" y="0px"
	 viewBox="0 0 831.5 117.3" enable-background="new 0 0 831.5 117.3" xml:space="preserve">
<g>
	<path fill="#FFFFFF" d="M13.4,20.2c-1.9,0.5-3.8,1.7-5.3,4.4c-1.4,2.4-2.4,5.3-3.5,8.1c-0.4,1-1,0-0.6-1c2.5-6.9,5-12.1,9.4-13.3
		C14,18.3,14,20,13.4,20.2z"/>
	<path fill="#CE4159" d="M30.3,20.7l0,0.6c-7.1-6-12.5-7.3-16.7-5.7C7.1,18,3.7,27.6,1.9,36.8C0,46.6,0,56,0,56l23.7,42.5l-1.5,17.7
		l5.9-9.9l6.1,10.9l-0.8-19.9l33.3-56C66.7,41.4,70.7-35.8,30.3,20.7z M3.9,31.8c2.5-6.9,5-12.1,9.4-13.3c0.6-0.2,0.6,1.6,0,1.8
		c-1.9,0.5-3.8,1.7-5.3,4.4c-1.4,2.4-2.4,5.3-3.5,8.1C4.2,33.7,3.6,32.8,3.9,31.8z"/>
	<path fill="#FFFFFF" d="M44.1,47.4c3.2-0.7,2.6-6.1,2.6-6.1c-0.2-3.9-5.1-1-5.1-1l-0.7,0.2l2.2-7.6c0.8-8-3.7-5.2-3.7-5.2
		c-3.2,0.7-4.5,14.2-4.5,14.2c0,0.1,0,0.2-0.1,0.4l-5.3,1.6l2.5-9.1c0.7-7.7-3.5-5.1-3.5-5.1c-3,0.6-4.2,13.7-4.2,13.7
		c-0.1,0.4-0.2,1.2-0.3,2.1l-13.5,3.9L23,53.2c-0.2,1.3-0.4,2.7-0.5,4.1L9.3,60.6l12.1,4.2c-1,7.9-2,14.9-2,14.9l4.2-15.3l8.3-2
		c-1.2,8.7-2.3,16.9-2.3,17.1l5.1-17.8l7.8-1.8c3.2-0.5,2.5-6,2.5-6c-0.2-3.9-5.1-1.2-5.1-1.2l-2.9,0.7l1.3-4.6L44.1,47.4z
		 M33.1,54.6L26,56.4l1.2-4.3l6.5-1.8C33.5,51.6,33.3,53.1,33.1,54.6z"/>
</g>
<g>
	<path fill="#FFFFFF" d="M90.8,81.5V20.8c0-2,1.9-3,5.7-3h3.3c3.8,0,5.7,1,5.7,3v23.4h25.6V20.8c0-2,1.9-3,5.7-3h3.3
		c3.8,0,5.7,1,5.7,3v60.7c0,2-1.9,3-5.7,3h-3.3c-3.8,0-5.7-1-5.7-3V56.8h-25.6v24.8c0,2-1.9,3-5.7,3h-3.3
		C92.7,84.5,90.8,83.5,90.8,81.5z"/>
	<path fill="#FFFFFF" d="M156.4,71.3c0-1.8,0.2-3.4,0.5-4.8c0.3-1.5,1-3,2.2-4.7c1.1-1.7,2.7-3,4.6-4.1c4.5-2.7,11.2-4,20-4v-3.1
		c0-3.6-2.5-5.4-7.4-5.4c-3.5,0-6.9,0.8-10.2,2.3c-1.1,0.5-1.8,0.8-2,0.8c-0.9,0-2-1-3.2-2.9c-1.2-2-1.8-3.5-1.8-4.7
		c0-1.7,1.8-3.2,5.3-4.6c3.5-1.3,7.8-2,12.9-2c13.6,0,20.4,5.3,20.4,15.8v17.8c0,3.9,0.2,7.2,0.6,9.9l0.6,3.9c0,1-1.3,1.8-3.8,2.3
		c-2.6,0.5-4.5,0.8-5.7,0.8c-1.3,0-2.1-0.1-2.5-0.4c-0.4-0.2-0.7-0.7-1-1.3c-0.3-0.6-0.4-1.1-0.6-1.4c-0.1-0.3-0.3-1-0.4-1.9
		c-0.2-0.9-0.3-1.4-0.3-1.6c-1.1,2-3.1,3.7-5.9,5.1c-2.8,1.4-5.5,2.1-8.1,2.1c-4.9,0-8.4-1.3-10.7-3.8
		C157.5,78.8,156.4,75.4,156.4,71.3z M170.3,69.8c0,1.3,0.4,2.3,1.2,3c0.8,0.8,2,1.1,3.7,1.1c1.6,0,3.3-0.6,4.8-1.7
		c1.6-1.1,2.8-2.6,3.5-4.3v-5.2C174.8,62.8,170.3,65.2,170.3,69.8z"/>
	<path fill="#FFFFFF" d="M207,78.4c0-1,0.6-2.4,1.8-4.3c1.2-1.8,2.3-2.7,3.2-2.7c0.1,0,1.3,0.4,3.4,1.3c2.2,0.9,4.1,1.3,5.9,1.3
		c3.9,0,5.8-1.4,5.8-4.3c0-1.5-0.6-2.7-1.9-3.6c-1.3-0.9-2.9-1.7-4.7-2.3c-1.9-0.6-3.7-1.4-5.6-2.3c-1.9-0.9-3.5-2.3-4.7-4.4
		c-1.3-2-1.9-4.6-1.9-7.8c0-4.7,1.6-8.5,4.7-11.2c3.1-2.8,7.4-4.1,12.8-4.1c2.5,0,4.9,0.3,7.2,0.8c4.6,1,6.8,2.8,6.8,5.2
		c0,0.8-0.5,2.2-1.4,4.1c-0.9,1.9-1.8,2.9-2.7,2.9c-0.1,0-1-0.3-2.8-1c-1.8-0.7-3.6-1-5.3-1c-3.4,0-5.1,1.1-5.1,3.4
		c0,1.3,0.6,2.3,1.9,3.1c1.3,0.8,2.9,1.5,4.7,2.2c1.9,0.7,3.7,1.5,5.6,2.5s3.5,2.5,4.7,4.6c1.3,2.1,1.9,4.7,1.9,7.8
		c0,5-1.6,9-4.9,12c-3.3,3-7.3,4.5-12.2,4.5c-4.9,0-9-0.6-12.3-1.8C208.7,82.2,207,80.5,207,78.4z"/>
	<path fill="#FFFFFF" d="M248.1,81.5V15.9c0-2,1.9-3,5.7-3h2.7c3.8,0,5.7,1,5.7,3v24.6c3.6-4.3,8.1-6.5,13.4-6.5
		c9.6,0,14.3,5.1,14.3,15.4v32.2c0,2-1.9,3-5.7,3h-2.7c-3.8,0-5.7-1-5.7-3V51.4c0-3.9-2-5.9-6.1-5.9c-3.2,0-5.7,1.8-7.6,5.5v30.4
		c0,2-1.9,3-5.7,3h-2.7C250,84.5,248.1,83.5,248.1,81.5z"/>
	<path fill="#FFFFFF" d="M320.2,74l2.6-0.4c0.8,0,1.5,0.9,2.1,2.8c0.6,1.9,0.8,3.2,0.8,4c0,3.1-3,4.7-9.1,4.7
		c-9.2,0-13.9-5.1-13.9-15.4V45.8h-1.5c-1.9,0-2.8-1.6-2.8-4.7v-1.6c0-3.2,0.9-4.7,2.8-4.7h1.5l1.2-9c0.3-2,2-3,5.1-3h2.9
		c3.2,0,4.7,1,4.7,3v9h4.7c1.9,0,2.8,1.6,2.8,4.7v1.6c0,3.2-0.9,4.7-2.8,4.7h-4.7v24.1C316.8,72.7,317.9,74,320.2,74z"/>
	<path fill="#FFFFFF" d="M331.9,71.3c0-1.8,0.2-3.4,0.5-4.8c0.3-1.5,1-3,2.2-4.7c1.1-1.7,2.7-3,4.6-4.1c4.5-2.7,11.2-4,20-4v-3.1
		c0-3.6-2.5-5.4-7.4-5.4c-3.5,0-6.9,0.8-10.1,2.3c-1.1,0.5-1.8,0.8-2,0.8c-0.9,0-2-1-3.2-2.9c-1.2-2-1.7-3.5-1.7-4.7
		c0-1.7,1.7-3.2,5.3-4.6c3.5-1.3,7.8-2,12.9-2c13.6,0,20.4,5.3,20.4,15.8v17.8c0,3.9,0.2,7.2,0.6,9.9l0.6,3.9c0,1-1.3,1.8-3.8,2.3
		c-2.6,0.5-4.5,0.8-5.7,0.8c-1.3,0-2.1-0.1-2.5-0.4c-0.4-0.2-0.7-0.7-1-1.3c-0.2-0.6-0.4-1.1-0.6-1.4c-0.1-0.3-0.3-1-0.4-1.9
		c-0.2-0.9-0.3-1.4-0.3-1.6c-1.1,2-3.1,3.7-5.9,5.1c-2.8,1.4-5.5,2.1-8.1,2.1c-4.9,0-8.4-1.3-10.7-3.8
		C333,78.8,331.9,75.4,331.9,71.3z M345.8,69.8c0,1.3,0.4,2.3,1.2,3c0.8,0.8,2.1,1.1,3.7,1.1s3.3-0.6,4.8-1.7
		c1.6-1.1,2.8-2.6,3.5-4.3v-5.2C350.3,62.8,345.8,65.2,345.8,69.8z"/>
	<path fill="#FFFFFF" d="M381,91.4c0-5.1,2.9-8.8,8.6-11l0.1-0.4c-2.7-1.4-4.1-3.7-4.1-7c0-3.3,1.9-5.9,5.7-8
		c-5.1-2.8-7.7-7.4-7.7-13.5c0-6.2,1.9-10.6,5.6-13.4c3.8-2.8,8.7-4.1,14.8-4.1c2.5,0,4.9,0.3,7.3,0.8h15.3c1.9,0,2.8,1.6,2.8,4.7
		v1.6c0,3-0.8,4.5-2.3,4.5c-1.6,0-2.9-0.1-4-0.4l-0.2,0.4c1,1.3,1.5,3.1,1.5,5.3c0,5.6-1.8,9.8-5.4,12.6c-3.6,2.8-8.2,4.2-14,4.2
		c-3.9,0-5.8,0.9-5.8,2.6c0,1.8,2.5,3,7.5,3.4c5,0.5,9.6,1.5,13.9,3.1c2.1,0.8,3.8,2.2,5.3,4.2c1.4,2,2.1,4.4,2.1,7.4
		c0,4.9-2.2,8.8-6.7,11.7c-4.5,2.9-10.4,4.4-17.7,4.4C388.5,104.5,381,100.1,381,91.4z M394.6,89.1c0,2.8,3.3,4.3,9.9,4.3
		s9.9-1.6,9.9-4.6c0-1.5-1.1-2.5-3.2-3.2c-2.1-0.7-5.9-1.2-11.4-1.6C396.3,85.2,394.6,86.9,394.6,89.1z M398.9,55.8
		c1.3,1.1,3,1.7,5.1,1.7s3.8-0.6,5.1-1.7c1.3-1.1,2-2.8,2-5c0-2.2-0.7-3.9-2-5c-1.3-1.1-3-1.7-5.1-1.7s-3.8,0.6-5.1,1.7
		c-1.3,1.1-2,2.8-2,5C396.9,53.1,397.6,54.7,398.9,55.8z"/>
	<path fill="#3CAAC1" d="M437,80.6V20.8c0-2,1.9-3,5.7-3h3.2c3.8,0,5.7,1,5.7,3v51.1h21.2c1.9,0,2.8,1.6,2.8,4.7v2.9
		c0,3.2-0.9,4.7-2.8,4.7h-32C438.3,84.4,437,83.1,437,80.6z"/>
	<path fill="#3CAAC1" d="M482,69.7V37.6c0-2,1.9-3,5.7-3h2.7c3.8,0,5.7,1,5.7,3v30.1c0,3.9,1.9,5.9,5.7,5.9c3.2,0,5.7-1.8,7.6-5.5
		V37.6c0-2,1.9-3,5.7-3h2.7c3.8,0,5.7,1,5.7,3v30.1c0,3.9,0.2,7.2,0.6,9.9l0.6,3.9c0,1-1.3,1.8-3.8,2.3c-2.6,0.5-4.5,0.8-5.7,0.8
		s-2.1-0.1-2.5-0.4c-0.4-0.2-0.7-0.7-1-1.3c-0.3-0.6-0.4-1.1-0.6-1.4c-0.1-0.3-0.3-1-0.4-1.9c-0.2-0.9-0.3-1.4-0.3-1.6
		c-1.5,2-3.5,3.7-6,5.1c-2.5,1.4-5.2,2.1-8.1,2.1c-4.7,0-8.3-1.3-10.5-3.8C483.1,78.9,482,75,482,69.7z"/>
	<path fill="#3CAAC1" d="M535.1,81.5V51.4c0-4.7-0.2-8.1-0.6-10c-0.4-1.9-0.6-3-0.6-3.4c0-1,1.3-1.8,3.8-2.3
		c2.6-0.5,4.5-0.8,5.7-0.8c1.3,0,2.1,0.1,2.5,0.4s0.7,0.6,1,1.2s0.4,1,0.6,1.3c0.1,0.3,0.3,0.9,0.4,1.8c0.2,0.8,0.3,1.3,0.3,1.5
		c1.5-2,3.5-3.7,6.1-5.1c2.5-1.4,5.2-2.1,8.1-2.1c4.7,0,8.3,1.3,10.5,3.7c2.3,2.5,3.4,6.4,3.4,11.6v32.2c0,2-1.9,3-5.7,3h-2.7
		c-3.8,0-5.7-1-5.7-3V51.4c0-3.9-1.9-5.9-5.7-5.9c-3.2,0-5.7,1.8-7.6,5.5v30.4c0,2-1.9,3-5.7,3h-2.7C537,84.5,535.1,83.5,535.1,81.5
		z"/>
	<path fill="#3CAAC1" d="M590.1,78.9c-3.9-4.1-5.9-10.5-5.9-19.1s2-15,5.9-19.4c3.9-4.3,10.1-6.5,18.5-6.5c3.9,0,7.4,0.6,10.8,1.8
		c3.3,1.2,5,2.8,5,4.8c0,0.9-0.6,2.4-1.9,4.4c-1.3,2-2.3,2.9-3.1,2.9c-0.3,0-0.8-0.2-1.7-0.7c-2.8-1.4-5.8-2.1-9-2.1
		c-3.2,0-5.7,1.2-7.4,3.5c-1.7,2.4-2.6,6-2.6,10.9s0.8,8.6,2.4,11c1.6,2.4,4.1,3.6,7.4,3.6c3.3,0,6.5-0.7,9.6-2.2
		c1-0.4,1.6-0.6,1.7-0.6c0.9,0,2,0.9,3.2,2.8c1.2,1.9,1.8,3.4,1.8,4.5c0,1.1-0.7,2.2-2.1,3.1s-3.1,1.6-5,2.1
		c-4.1,0.9-7.2,1.3-9.5,1.3C600,85.1,594,83.1,590.1,78.9z"/>
	<path fill="#3CAAC1" d="M632.5,81.5V15.9c0-2,1.9-3,5.7-3h2.7c3.8,0,5.7,1,5.7,3v24.6c3.6-4.3,8.1-6.5,13.4-6.5
		c9.6,0,14.3,5.1,14.3,15.4v32.2c0,2-1.9,3-5.7,3h-2.7c-3.8,0-5.7-1-5.7-3V51.4c0-3.9-2-5.9-6.1-5.9c-3.2,0-5.7,1.8-7.6,5.5v30.4
		c0,2-1.9,3-5.7,3h-2.7C634.4,84.5,632.5,83.5,632.5,81.5z"/>
	<path fill="#3CAAC1" d="M684.2,81.5V15.9c0-2,1.9-3,5.7-3h2.7c3.8,0,5.7,1,5.7,3v21.1c2.7-2,5.9-2.9,9.7-2.9
		c6.3,0,11.2,2.3,14.8,6.9c3.5,4.6,5.3,10.9,5.3,18.8s-1.6,14.2-4.9,18.7c-3.3,4.5-7.6,6.8-12.8,6.8c-2.8,0-5.4-0.7-7.6-2
		c-2.2-1.3-3.9-3-5.1-5.1l-0.9,4.1c-0.4,1.6-2.2,2.5-5.5,2.5h-1.1C686.1,84.5,684.2,83.5,684.2,81.5z M706,73.6
		c5.1,0,7.7-4.8,7.7-14.3c0-9.5-2.9-14.3-8.8-14.3c-2.3,0-4.5,0.6-6.6,1.8V68C700.4,71.8,703,73.6,706,73.6z"/>
	<path fill="#3CAAC1" d="M734.5,71.3c0-1.8,0.2-3.4,0.5-4.8c0.3-1.5,1-3,2.2-4.7c1.1-1.7,2.7-3,4.6-4.1c4.5-2.7,11.2-4,20-4v-3.1
		c0-3.6-2.5-5.4-7.4-5.4c-3.5,0-6.9,0.8-10.1,2.3c-1.1,0.5-1.8,0.8-2,0.8c-0.9,0-2-1-3.2-2.9c-1.2-2-1.7-3.5-1.7-4.7
		c0-1.7,1.7-3.2,5.3-4.6c3.5-1.3,7.8-2,12.9-2c13.6,0,20.4,5.3,20.4,15.8v17.8c0,3.9,0.2,7.2,0.6,9.9l0.6,3.9c0,1-1.3,1.8-3.8,2.3
		c-2.6,0.5-4.5,0.8-5.7,0.8c-1.3,0-2.1-0.1-2.5-0.4c-0.4-0.2-0.7-0.7-1-1.3c-0.2-0.6-0.4-1.1-0.6-1.4s-0.3-1-0.4-1.9
		c-0.2-0.9-0.3-1.4-0.3-1.6c-1.1,2-3.1,3.7-5.9,5.1c-2.8,1.4-5.5,2.1-8.1,2.1c-4.9,0-8.4-1.3-10.7-3.8
		C735.6,78.8,734.5,75.4,734.5,71.3z M748.4,69.8c0,1.3,0.4,2.3,1.2,3c0.8,0.8,2.1,1.1,3.7,1.1c1.6,0,3.3-0.6,4.8-1.7
		c1.6-1.1,2.8-2.6,3.5-4.3v-5.2C752.8,62.8,748.4,65.2,748.4,69.8z"/>
	<path fill="#3CAAC1" d="M783.1,91.4c0-5.1,2.9-8.8,8.6-11l0.1-0.4c-2.7-1.4-4.1-3.7-4.1-7c0-3.3,1.9-5.9,5.7-8
		c-5.1-2.8-7.7-7.4-7.7-13.5c0-6.2,1.9-10.6,5.6-13.4c3.8-2.8,8.7-4.1,14.8-4.1c2.5,0,4.9,0.3,7.3,0.8h15.3c1.9,0,2.8,1.6,2.8,4.7
		v1.6c0,3-0.8,4.5-2.3,4.5c-1.6,0-2.9-0.1-4-0.4l-0.2,0.4c1,1.3,1.5,3.1,1.5,5.3c0,5.6-1.8,9.8-5.4,12.6c-3.6,2.8-8.2,4.2-14,4.2
		c-3.9,0-5.8,0.9-5.8,2.6c0,1.8,2.5,3,7.5,3.4c5,0.5,9.6,1.5,13.9,3.1c2.1,0.8,3.8,2.2,5.3,4.2c1.4,2,2.1,4.4,2.1,7.4
		c0,4.9-2.2,8.8-6.7,11.7c-4.5,2.9-10.4,4.4-17.7,4.4C790.6,104.5,783.1,100.1,783.1,91.4z M796.7,89.1c0,2.8,3.3,4.3,9.9,4.3
		c6.6,0,9.9-1.6,9.9-4.6c0-1.5-1.1-2.5-3.2-3.2c-2.1-0.7-5.9-1.2-11.4-1.6C798.4,85.2,796.7,86.9,796.7,89.1z M801,55.8
		c1.3,1.1,3,1.7,5.1,1.7c2.1,0,3.8-0.6,5.1-1.7c1.3-1.1,2-2.8,2-5c0-2.2-0.7-3.9-2-5c-1.3-1.1-3-1.7-5.1-1.7c-2.1,0-3.8,0.6-5.1,1.7
		c-1.3,1.1-2,2.8-2,5C799,53.1,799.6,54.7,801,55.8z"/>
</g>
</svg>
