<?xml version="1.0" encoding="UTF-8"?>
<svg width="27px" height="57px" viewBox="0 0 27 57" version="1.1" xmlns="http://www.w3.org/2000/svg" xmlns:xlink="http://www.w3.org/1999/xlink">
    <!-- Generator: Sketch 50.2 (55047) - http://www.bohemiancoding.com/sketch -->
    <title>heart</title>
    <desc>Created with Sketch.</desc>
    <defs></defs>
    <g id="mobile" stroke="none" stroke-width="1" fill="none" fill-rule="evenodd">
        <g id="Mobile---Give" transform="translate(-172.000000, -294.000000)">
            <g id="card" transform="translate(8.000000, 7.000000)">
                <g id="metric-2" transform="translate(124.000000, 288.000000)">
                    <g id="heart" transform="translate(54.407245, 26.790286) rotate(-9.000000) translate(-54.407245, -26.790286) translate(41.907245, 1.790286)">
                        <path d="M11.3086757,8.75390088 L11.3086757,9.05465071 C10.5104163,8.30277613 9.84520004,7.70127647 9.17998382,7.40052664 C2.92695136,3.34040393 0.931302707,12.8140236 0.266086488,18.9793951 C0,21.6861436 0,23.7913924 0,23.7913924 L8.78085409,41.6860073 L8.24868112,49.2047531 L10.5104163,44.9942555 L12.7721514,49.6558779 L12.5060649,41.2348826 L24.8790866,17.6260209 C24.8790866,17.475646 26.3425623,-15.1557107 11.3086757,8.75390088 Z" id="heart-fill" stroke="#D93651" stroke-width="2" fill="#D93651" fill-rule="nonzero"></path>
                        <path d="M6.64846417,9.00427202 C5.97896782,9.30422478 5.17557221,9.75415392 4.63997513,10.953965 C4.10437805,11.8538232 3.70268024,13.2036106 3.30098243,14.2534453 C3.16708317,14.7033744 3.0331839,14.2534453 3.16708317,13.9534925 C4.10437805,11.1039413 5.04167294,8.85429565 6.64846417,8.25439013 C6.91626271,8.25439013 6.91626271,9.00427202 6.64846417,9.00427202 Z" id="Path" fill="#FFFFFF"></path>
                    </g>
                </g>
            </g>
        </g>
    </g>
</svg>