<?xml version="1.0" encoding="UTF-8"?>
<svg width="46px" height="52px" viewBox="0 0 46 52" version="1.1" xmlns="http://www.w3.org/2000/svg" xmlns:xlink="http://www.w3.org/1999/xlink">
    <!-- Generator: Sketch 50.2 (55047) - http://www.bohemiancoding.com/sketch -->
    <title>lunchbag icon</title>
    <desc>Created with Sketch.</desc>
    <defs></defs>
    <g id="mobile" stroke="none" stroke-width="1" fill="none" fill-rule="evenodd">
        <g id="Mobile---Give" transform="translate(-39.000000, -298.000000)" fill-rule="nonzero">
            <g id="card" transform="translate(8.000000, 7.000000)">
                <g id="metric-1" transform="translate(0.000000, 292.000000)">
                    <g id="lunchbag-icon" transform="translate(32.000000, 0.000000)">
                        <path d="M1.09076156,11.438587 L2.56682143,11.438587 L0.160723833,50 L36.1649116,50 C36.4087397,50 36.6503858,49.9190217 36.8478484,49.7608696 L43.8228586,44.1815217 C44.1086884,43.9527174 44.2603309,43.5956522 44.2259659,43.2320652 L40.2352585,0.984782609 C40.2112575,0.727717391 40.0983439,0.498369565 39.9287006,0.326086957 C39.8965175,0.293478261 39.8626979,0.263586957 39.827242,0.235326087 C39.6406889,0.0875 39.4039521,0 39.1492145,0 C39.148669,0 39.147578,0 39.1464871,0 L4.30580107,0 C3.84050946,0 3.42649267,0.294021739 3.27485015,0.732065217 L0.0598106481,9.99673913 C-0.0552849297,10.3288043 -0.00237369251,10.6961957 0.20218006,10.9820652 C0.406733812,11.2684783 0.737838152,11.438587 1.09076156,11.438587 Z M35.1399609,47.826087 L2.48227255,47.826087 L4.75309194,11.438587 L35.9336295,11.438587 C36.3989211,11.438587 36.8123924,11.1445652 36.9645804,10.7070652 L37.5635138,8.98206522 L35.1399609,47.826087 Z M39.3712235,15.0407609 L41.9982391,42.8527174 L37.4064165,46.5255435 L39.3712235,15.0407609 Z M5.08255985,2.17391304 L37.617516,2.17391304 L35.1563252,9.26467391 L2.62246005,9.26467391 L5.08255985,2.17391304 Z" id="Shape" stroke="#000000" stroke-width="0.5" fill="#000000"></path>
                        <g id="hashtaglunchbag-logo-heart-copy" transform="translate(11.538462, 13.461538)">
                            <path d="M6.59891948,4.97624366 L6.59891948,11.7649173 C6.59891948,11.8566561 6.59891948,11.9483949 6.49893585,11.9483949 C6.49893585,11.9483949 6.39895222,12.0401338 6.29896859,12.0401338 L0,12.0401338 C0.399934514,8.27884164 1.89968894,2.49929517 6.59891948,4.97624366 Z" id="Shape" fill="#FFFFFF"></path>
                            <path d="M7.98621443,5.40290858 L7.98621443,5.58853141 C7.42248165,5.12447434 6.95270433,4.75322868 6.48292701,4.56760585 C2.06702021,2.06169767 0.657688247,7.90881677 0.187910928,11.7140848 C0,13.3846902 0,14.68405 0,14.68405 L6.20106062,25.7286083 L5.82523876,30.369179 L7.42248165,27.7704594 L9.01972453,30.6476133 L8.83181361,25.4501741 L17.5696717,10.878782 C17.5696717,10.7859706 18.6031819,-9.35410628 7.98621443,5.40290858 Z M3.47635216,5.21728575 C3.00657484,5.40290858 2.44284206,5.68134282 2.06702021,6.42383414 C1.69119835,6.98070262 1.40933196,7.81600535 1.12746557,8.46568525 C1.0335101,8.74411949 0.939554639,8.46568525 1.0335101,8.28006242 C1.69119835,6.51664555 2.3488866,5.12447434 3.47635216,4.75322868 C3.66426309,4.75322868 3.66426309,5.21728575 3.47635216,5.21728575 Z" id="Shape" fill="#CE4159"></path>
                            <path d="M12.5276879,11.57428 C13.3666177,11.395648 13.1801889,10.0559078 13.1801889,10.0559078 C13.1801889,9.07343169 11.8751869,9.78795979 11.8751869,9.78795979 L11.6887581,9.8772758 L12.2480446,8.00163955 C12.4344735,6.03668729 11.3159004,6.66189938 11.3159004,6.66189938 C10.4769705,6.8405314 10.1041128,10.2345398 10.1041128,10.2345398 C10.1041128,10.2345398 10.1041128,10.3238559 10.1041128,10.3238559 L8.70589644,10.6811199 L9.35839742,8.3589036 C9.54482627,6.39395134 8.42625316,7.10847944 8.42625316,7.10847944 C7.68053775,7.28711146 7.30768005,10.5024879 7.30768005,10.5024879 C7.30768005,10.5918039 7.30768005,10.7704359 7.21446562,11.038384 L3.67231744,12.0208601 L6.93482235,13.0033362 C6.93482235,13.3606003 6.84160792,13.7178643 6.7483935,14.0751284 L3.29945974,14.8789725 L6.46875022,15.9507646 C6.18910694,17.9157169 6.00267809,19.7020371 6.00267809,19.7020371 L7.1212512,15.8614486 L9.26518299,15.4148685 C8.98553972,17.5584528 8.70589644,19.6127211 8.70589644,19.7020371 L10.0108984,15.2362365 L12.0616158,14.7896564 C12.9005456,14.6110244 12.7141168,13.2712842 12.7141168,13.2712842 C12.7141168,12.2888081 11.4091148,13.0033362 11.4091148,13.0033362 L10.6633994,13.1819682 L11.0362571,12.0208601 L12.5276879,11.57428 Z M9.6380407,13.3606003 L7.77375218,13.8071803 L8.05339546,12.7353882 L9.73125512,12.2888081 C9.73125512,12.5567562 9.73125512,13.0033362 9.6380407,13.3606003 Z" id="Shape" fill="#FFFFFF"></path>
                        </g>
                    </g>
                </g>
            </g>
        </g>
    </g>
</svg>